<svg xmlns="http://www.w3.org/2000/svg" width="375" viewBox="0 0 375 375" height="375" version="1.0"><defs><clipPath id="a"><path d="M 113.753906 41.730469 L 283.253906 41.730469 L 283.253906 211.230469 L 113.753906 211.230469 Z M 113.753906 41.730469"/></clipPath><clipPath id="b"><path d="M 166 75 L 280 75 L 280 211.230469 L 166 211.230469 Z M 166 75"/></clipPath></defs><g clip-path="url(#a)"><path fill="#E75A59" d="M 283.253906 126.480469 C 283.253906 173.285156 245.308594 211.230469 198.503906 211.230469 C 151.695312 211.230469 113.753906 173.285156 113.753906 126.480469 C 113.753906 79.671875 151.695312 41.730469 198.503906 41.730469 C 245.308594 41.730469 283.253906 79.671875 283.253906 126.480469"/></g><g clip-path="url(#b)"><path fill="#CA4C50" d="M 279.945312 149.996094 L 211.007812 81.058594 C 207.890625 77.71875 203.457031 75.628906 198.542969 75.628906 C 189.136719 75.628906 181.484375 83.28125 181.484375 92.6875 L 181.484375 106.976562 L 180.90625 106.976562 L 180.90625 109.945312 L 180 108.269531 L 171.90625 108.292969 L 169.515625 105.769531 L 166.019531 105.769531 L 166.019531 120.351562 L 171.242188 125.605469 L 171.242188 135.144531 C 171.242188 142.152344 174.242188 148.511719 179.097656 153.152344 L 192.332031 166.394531 L 177.167969 166.394531 L 177.167969 168.597656 L 178.847656 169.855469 L 170.367188 169.855469 L 170.367188 177.328125 L 204.085938 211.046875 C 240.261719 208.695312 270.246094 183.644531 279.945312 149.996094"/></g><path fill="#2A384C" d="M 198.542969 75.628906 C 189.136719 75.628906 181.484375 83.28125 181.484375 92.6875 L 181.484375 133.433594 C 181.484375 142.835938 189.136719 150.488281 198.542969 150.488281 C 207.945312 150.488281 215.597656 142.835938 215.597656 133.433594 L 215.597656 92.6875 C 215.597656 83.28125 207.945312 75.628906 198.542969 75.628906"/><path fill="#EFF4F3" d="M 226.636719 177.328125 L 170.367188 177.328125 L 170.367188 169.855469 L 226.636719 169.855469 L 226.636719 177.328125"/><path fill="#EFF4F3" d="M 216.179688 119.535156 L 180.90625 119.535156 L 180.90625 106.976562 L 216.179688 106.976562 L 216.179688 119.535156"/><path fill="#C8CDD1" d="M 215.535156 127.5 L 181.546875 127.5 L 181.546875 125.785156 L 215.535156 125.785156 L 215.535156 127.5"/><path fill="#C8CDD1" d="M 215.535156 132.734375 L 181.546875 132.734375 L 181.546875 131.019531 L 215.535156 131.019531 L 215.535156 132.734375"/><path fill="#C8CDD1" d="M 169.515625 108.269531 L 169.515625 105.769531 L 166.019531 105.769531 L 166.019531 120.351562 L 169.515625 120.351562 L 169.515625 117.851562 L 180 117.851562 L 180 108.269531 L 169.515625 108.269531"/><path fill="#C8CDD1" d="M 227.492188 108.269531 L 227.492188 105.769531 L 230.984375 105.769531 L 230.984375 120.351562 L 227.492188 120.351562 L 227.492188 117.851562 L 217.003906 117.851562 L 217.003906 108.269531 L 227.492188 108.269531"/><path fill="#EFF4F3" d="M 222.230469 114.820312 C 220.238281 114.820312 218.621094 115.8125 218.621094 117.035156 L 218.621094 135.144531 C 218.621094 145.578125 209.632812 154.042969 198.539062 154.042969 C 187.449219 154.042969 178.457031 145.578125 178.457031 135.144531 L 178.457031 117.035156 C 178.457031 115.8125 176.84375 114.824219 174.851562 114.824219 C 172.859375 114.824219 171.242188 115.8125 171.242188 117.035156 L 171.242188 135.144531 C 171.242188 149.304688 183.488281 160.832031 198.539062 160.832031 C 213.589844 160.832031 225.835938 149.304688 225.835938 135.144531 L 225.835938 117.035156 C 225.835938 115.8125 224.222656 114.820312 222.230469 114.820312"/><path fill="#C8CDD1" d="M 203.5625 166.394531 L 203.5625 153.082031 L 193.441406 153.082031 L 193.441406 166.394531 L 177.167969 166.394531 L 177.167969 168.597656 L 219.835938 168.597656 L 219.835938 166.394531 L 203.5625 166.394531"/><path fill="#C8CDD1" d="M 186.832031 95.679688 L 189.328125 93.066406 L 191.804688 95.679688 L 189.328125 98.304688 Z M 186.835938 86.046875 L 189.328125 83.425781 L 191.800781 86.046875 L 189.328125 88.644531 Z M 193.910156 78.597656 L 196.386719 81.203125 L 193.917969 83.816406 L 193.910156 83.816406 L 191.433594 81.203125 Z M 198.503906 83.425781 L 200.992188 86.046875 L 198.503906 88.644531 L 196.019531 86.046875 Z M 203.09375 78.597656 L 205.574219 81.203125 L 203.09375 83.816406 L 200.617188 81.203125 Z M 210.175781 86.046875 C 210.171875 86.050781 209.695312 86.550781 209.695312 86.554688 L 207.695312 88.644531 L 205.207031 86.046875 L 207.695312 83.425781 Z M 210.183594 95.679688 L 207.695312 98.304688 L 205.195312 95.679688 L 207.695312 93.066406 Z M 203.09375 103.128906 L 200.609375 100.5 L 203.09375 97.882812 L 205.582031 100.5 Z M 200.609375 90.859375 C 200.71875 90.742188 202.984375 88.367188 203.09375 88.25 C 204.414062 89.625 202.371094 87.464844 205.582031 90.859375 L 203.09375 93.460938 Z M 196.015625 95.679688 L 198.503906 93.066406 L 201 95.679688 L 198.503906 98.304688 Z M 191.421875 90.859375 C 193.570312 88.589844 193.070312 89.113281 193.910156 88.25 C 194.667969 89.023438 194 88.324219 196.398438 90.859375 L 193.910156 93.460938 Z M 193.917969 103.128906 L 193.910156 103.128906 L 191.421875 100.5 L 193.910156 97.882812 L 196.398438 100.5 Z M 186.832031 105.339844 L 189.328125 102.714844 L 191.804688 105.339844 C 191.335938 105.835938 190.886719 106.191406 190.917969 106.976562 L 196.90625 106.976562 C 196.9375 106.1875 196.496094 105.835938 196.015625 105.339844 L 198.503906 102.714844 L 201 105.339844 C 200.53125 105.824219 200.074219 106.179688 200.101562 106.976562 L 206.101562 106.976562 C 206.132812 106.21875 205.710938 105.882812 205.195312 105.339844 L 207.695312 102.714844 L 210.183594 105.339844 C 209.734375 105.796875 209.253906 106.15625 209.28125 106.976562 L 214.195312 106.976562 L 214.195312 101.113281 L 212.277344 103.128906 L 209.792969 100.5 L 212.277344 97.882812 L 214.195312 99.890625 C 214.195312 92.164062 214.214844 92.429688 214.136719 91.523438 L 212.277344 93.460938 L 209.792969 90.859375 C 213.65625 86.769531 210.257812 90.359375 212.277344 88.25 C 212.597656 88.585938 212.648438 88.617188 213.929688 89.972656 C 212.675781 83.222656 207.078125 77.976562 200.15625 77.265625 L 198.503906 78.996094 L 196.867188 77.273438 C 190.007812 78.003906 184.457031 83.1875 183.171875 89.867188 C 184.941406 88 183.621094 89.414062 184.726562 88.25 C 187.609375 91.273438 182.847656 86.238281 187.214844 90.859375 L 184.726562 93.460938 L 182.9375 91.578125 C 182.867188 92.390625 182.886719 92.238281 182.886719 99.820312 L 184.726562 97.882812 L 187.214844 100.5 L 184.726562 103.121094 L 182.886719 101.183594 L 182.886719 106.976562 L 187.738281 106.976562 C 187.765625 106.214844 187.335938 105.875 186.832031 105.339844"/><g fill="#E75A59"><g><g><path d="M 13.492188 -43.429688 C 13.058594 -43.429688 12.628906 -43.308594 12.257812 -43.308594 C 12.199219 -43.308594 12.199219 -43.308594 12.136719 -43.308594 L 11.890625 -43.308594 C 11.828125 -43.308594 11.765625 -43.308594 11.703125 -43.308594 L 11.582031 -43.308594 C 11.335938 -43.308594 11.027344 -43.308594 10.71875 -43.246094 C 10.226562 -43.121094 9.734375 -42.9375 9.242188 -42.753906 C 8.808594 -42.628906 8.316406 -42.445312 7.886719 -42.199219 C 7.453125 -41.953125 6.960938 -41.828125 6.589844 -41.519531 C 6.285156 -41.273438 5.914062 -40.964844 5.605469 -40.65625 L 5.667969 -40.535156 C 5.484375 -40.410156 5.234375 -40.351562 5.175781 -40.226562 C 5.175781 -40.226562 5.234375 -40.164062 5.234375 -40.105469 L 5.050781 -39.980469 C 4.867188 -39.796875 4.742188 -39.671875 4.558594 -39.488281 L 3.882812 -38.625 C 3.632812 -38.253906 3.386719 -37.886719 3.203125 -37.453125 C 3.082031 -37.332031 3.082031 -37.148438 2.957031 -36.960938 C 2.773438 -36.652344 2.585938 -36.285156 2.464844 -35.914062 C 2.28125 -35.546875 2.28125 -35.113281 2.15625 -34.742188 L 1.972656 -34.128906 C 1.910156 -33.820312 1.726562 -33.574219 1.664062 -33.265625 C 1.601562 -32.957031 1.664062 -32.648438 1.664062 -32.339844 C 1.601562 -32.15625 1.601562 -31.910156 1.539062 -31.664062 C 1.539062 -31.664062 1.601562 -31.601562 1.539062 -31.601562 C 1.539062 -31.355469 1.539062 -31.109375 1.601562 -30.925781 C 1.601562 -30.617188 1.539062 -30.371094 1.539062 -30.125 C 1.539062 -30 1.664062 -29.816406 1.664062 -29.691406 L 1.847656 -28.707031 C 1.910156 -28.460938 1.847656 -28.152344 1.910156 -27.90625 C 2.03125 -27.535156 2.28125 -27.230469 2.402344 -26.921875 C 2.464844 -26.675781 2.464844 -26.425781 2.585938 -26.242188 C 2.710938 -25.875 2.894531 -25.566406 3.082031 -25.195312 C 3.265625 -24.949219 3.386719 -24.578125 3.632812 -24.210938 C 3.820312 -23.902344 4.128906 -23.65625 4.375 -23.347656 C 4.621094 -22.976562 4.804688 -22.546875 5.050781 -22.175781 C 5.234375 -21.867188 5.484375 -21.621094 5.730469 -21.316406 C 5.976562 -21.007812 6.160156 -20.636719 6.40625 -20.328125 C 6.589844 -20.082031 6.714844 -19.773438 6.898438 -19.527344 L 7.824219 -18.417969 C 8.132812 -17.925781 8.378906 -17.433594 8.746094 -16.941406 C 8.992188 -16.632812 9.242188 -16.386719 9.425781 -16.015625 C 9.734375 -15.648438 10.101562 -15.214844 10.347656 -14.785156 C 10.597656 -14.414062 10.71875 -14.046875 10.84375 -13.613281 C 10.964844 -13.246094 11.027344 -12.875 11.027344 -12.503906 C 11.027344 -12.257812 11.089844 -12.074219 11.089844 -11.828125 L 11.089844 -11.703125 C 11.089844 -11.519531 10.964844 -11.398438 10.902344 -11.273438 C 10.84375 -11.089844 10.71875 -10.902344 10.65625 -10.65625 C 10.535156 -10.472656 10.410156 -10.226562 10.226562 -9.980469 C 9.980469 -9.671875 9.734375 -9.425781 9.425781 -9.179688 C 9.179688 -9.054688 8.933594 -8.808594 8.625 -8.6875 C 8.253906 -8.5 7.824219 -8.316406 7.390625 -8.191406 C 7.023438 -8.070312 6.652344 -8.070312 6.285156 -8.070312 C 6.035156 -8.007812 5.851562 -8.007812 5.605469 -8.007812 C 5.542969 -8.007812 5.359375 -7.886719 5.296875 -7.886719 C 5.234375 -7.886719 5.175781 -7.886719 5.175781 -7.886719 L 5.113281 -7.886719 C 4.929688 -7.886719 4.804688 -8.007812 4.621094 -8.007812 C 4.496094 -8.007812 4.3125 -8.070312 4.128906 -8.070312 C 4.066406 -8.070312 4.066406 -8.070312 4.003906 -8.070312 L 3.757812 -8.070312 C 3.695312 -8.070312 3.632812 -8.070312 3.574219 -8.070312 L 3.449219 -8.070312 C 3.265625 -8.070312 2.832031 -8.132812 2.710938 -8.070312 C 2.585938 -7.945312 2.585938 -7.824219 2.585938 -7.640625 C 2.585938 -7.515625 2.464844 -7.332031 2.464844 -7.207031 L 2.464844 -1.417969 C 2.464844 -1.230469 2.585938 -1.046875 2.648438 -0.863281 C 2.648438 -0.617188 2.773438 -0.492188 2.957031 -0.371094 C 3.082031 -0.308594 3.265625 -0.183594 3.449219 -0.125 C 3.757812 0 4.066406 0.0625 4.375 0.125 C 4.683594 0.183594 4.988281 0.183594 5.175781 0.246094 C 5.484375 0.308594 5.789062 0.429688 6.035156 0.492188 L 6.160156 0.492188 C 6.222656 0.492188 6.34375 0.429688 6.46875 0.429688 L 7.886719 0.492188 C 7.886719 0.492188 7.886719 0.492188 7.945312 0.492188 L 7.945312 0.371094 C 7.945312 0.371094 8.007812 0.371094 8.007812 0.371094 L 8.316406 0.371094 C 8.441406 0.429688 8.5 0.429688 8.625 0.429688 L 8.6875 0.429688 C 9.117188 0.371094 9.488281 0.308594 9.917969 0.183594 C 10.472656 0.0625 10.964844 -0.246094 11.519531 -0.492188 C 12.011719 -0.675781 12.503906 -0.738281 12.875 -0.984375 C 13.183594 -1.171875 13.492188 -1.355469 13.738281 -1.539062 L 14.230469 -1.910156 C 14.476562 -2.09375 14.785156 -2.28125 15.03125 -2.527344 C 15.214844 -2.648438 15.402344 -2.832031 15.585938 -3.019531 C 15.894531 -3.265625 16.203125 -3.511719 16.507812 -3.882812 C 16.632812 -4.003906 16.757812 -4.1875 16.878906 -4.375 C 17.125 -4.621094 17.308594 -4.929688 17.496094 -5.234375 C 17.742188 -5.542969 17.804688 -5.914062 17.988281 -6.285156 C 18.234375 -6.777344 18.605469 -7.207031 18.789062 -7.699219 C 18.972656 -8.253906 19.160156 -8.808594 19.28125 -9.363281 L 19.464844 -10.289062 C 19.527344 -10.597656 19.527344 -10.902344 19.527344 -11.210938 C 19.589844 -11.457031 19.589844 -11.703125 19.652344 -11.949219 L 19.589844 -12.011719 C 19.652344 -12.257812 19.652344 -12.503906 19.652344 -12.75 L 19.652344 -13.492188 C 19.652344 -13.675781 19.589844 -13.800781 19.589844 -13.984375 C 19.527344 -14.167969 19.589844 -14.351562 19.527344 -14.539062 C 19.464844 -14.90625 19.40625 -15.339844 19.28125 -15.707031 L 18.914062 -16.941406 C 18.851562 -17.125 18.726562 -17.308594 18.605469 -17.496094 C 18.480469 -17.804688 18.296875 -18.171875 18.109375 -18.480469 C 18.050781 -18.664062 17.925781 -18.851562 17.804688 -19.035156 C 17.617188 -19.28125 17.558594 -19.527344 17.371094 -19.773438 C 17.1875 -20.019531 16.878906 -20.207031 16.757812 -20.515625 C 16.507812 -20.761719 16.386719 -21.066406 16.203125 -21.375 L 15.707031 -22.117188 C 15.460938 -22.363281 15.339844 -22.667969 15.15625 -22.976562 C 14.90625 -23.285156 14.660156 -23.53125 14.414062 -23.902344 C 14.230469 -24.148438 13.984375 -24.394531 13.800781 -24.703125 C 13.550781 -25.011719 13.367188 -25.257812 13.121094 -25.566406 L 12.503906 -26.304688 C 12.382812 -26.550781 12.199219 -26.796875 12.011719 -27.042969 C 11.828125 -27.351562 11.644531 -27.660156 11.398438 -27.90625 C 11.210938 -28.214844 11.089844 -28.523438 10.902344 -28.769531 C 10.78125 -28.953125 10.71875 -29.136719 10.597656 -29.382812 L 10.226562 -30.246094 C 10.164062 -30.554688 10.042969 -30.863281 10.042969 -31.234375 L 10.101562 -31.480469 C 10.101562 -31.789062 10.289062 -32.09375 10.410156 -32.402344 C 10.472656 -32.589844 10.410156 -32.773438 10.472656 -32.957031 C 10.535156 -33.203125 10.71875 -33.390625 10.84375 -33.574219 L 11.273438 -34.128906 C 11.457031 -34.3125 11.703125 -34.496094 11.949219 -34.621094 C 12.199219 -34.867188 12.445312 -34.992188 12.691406 -35.175781 C 13.058594 -35.296875 13.429688 -35.421875 13.859375 -35.484375 C 14.105469 -35.484375 14.292969 -35.546875 14.476562 -35.546875 L 14.660156 -35.546875 C 14.785156 -35.484375 14.96875 -35.421875 15.09375 -35.421875 L 15.15625 -35.421875 C 15.402344 -35.484375 15.523438 -35.605469 15.585938 -35.792969 C 15.648438 -35.914062 15.648438 -36.039062 15.648438 -36.160156 C 15.648438 -37.207031 15.707031 -38.253906 15.707031 -39.300781 L 15.585938 -39.300781 C 15.585938 -40.226562 15.585938 -41.152344 15.585938 -42.074219 L 15.585938 -42.445312 C 15.585938 -42.628906 15.648438 -42.8125 15.523438 -43 C 15.460938 -43.058594 15.339844 -43.058594 15.277344 -43.121094 C 15.09375 -43.183594 14.96875 -43.246094 14.847656 -43.246094 C 14.847656 -43.308594 14.785156 -43.308594 14.785156 -43.308594 C 14.722656 -43.308594 14.722656 -43.246094 14.660156 -43.246094 C 14.601562 -43.246094 14.539062 -43.246094 14.476562 -43.246094 L 14.414062 -43.246094 C 14.414062 -43.246094 13.304688 -43.492188 13.492188 -43.429688 Z M 13.492188 -43.429688" transform="translate(115.29 263.294)"/></g></g></g><g fill="#E75A59"><g><g><path d="M 27.414062 -26.921875 C 27.414062 -25.257812 27.597656 -23.59375 27.597656 -21.867188 C 27.597656 -20.207031 27.535156 -18.480469 27.535156 -16.816406 L 27.535156 -11.765625 C 27.535156 -11.582031 27.414062 -11.398438 27.414062 -11.210938 C 27.476562 -11.027344 27.535156 -10.902344 27.535156 -10.78125 C 27.535156 -10.472656 27.476562 -10.226562 27.414062 -9.917969 C 27.351562 -9.609375 27.289062 -9.300781 27.230469 -9.054688 L 27.042969 -7.886719 C 26.980469 -7.761719 26.921875 -7.578125 26.921875 -7.453125 C 26.859375 -7.390625 26.796875 -7.332031 26.796875 -7.269531 C 26.675781 -6.960938 26.613281 -6.652344 26.488281 -6.40625 C 26.304688 -6.035156 25.996094 -5.667969 25.75 -5.296875 C 25.625 -4.988281 25.503906 -4.683594 25.257812 -4.433594 C 25.074219 -4.1875 24.886719 -3.941406 24.703125 -3.695312 L 23.964844 -2.957031 C 23.777344 -2.832031 23.59375 -2.648438 23.472656 -2.527344 C 23.222656 -2.28125 22.917969 -2.15625 22.667969 -1.910156 C 22.363281 -1.726562 22.054688 -1.476562 21.683594 -1.292969 C 21.4375 -1.171875 21.191406 -0.984375 20.882812 -0.863281 C 20.515625 -0.675781 20.207031 -0.429688 19.835938 -0.246094 C 19.589844 -0.183594 19.34375 -0.183594 19.160156 -0.125 C 19.035156 -0.0625 18.851562 -0.0625 18.726562 0 C 18.664062 0 18.664062 0.0625 18.605469 0.125 C 18.171875 0.183594 17.804688 0.183594 17.371094 0.183594 C 17.1875 0.246094 16.941406 0.308594 16.757812 0.308594 L 16.507812 0.308594 C 16.449219 0.308594 16.324219 0.371094 16.261719 0.371094 L 16.261719 0.308594 C 16.078125 0.246094 15.894531 0.492188 15.707031 0.429688 C 15.460938 0.429688 15.214844 0.429688 14.90625 0.371094 C 14.660156 0.371094 14.351562 0.371094 14.105469 0.308594 C 13.800781 0.246094 13.492188 0.183594 13.121094 0.125 L 12.628906 0 C 12.257812 -0.125 11.890625 -0.308594 11.519531 -0.429688 C 11.089844 -0.617188 10.597656 -0.738281 10.164062 -0.984375 C 9.734375 -1.230469 9.425781 -1.601562 9.054688 -1.847656 C 8.746094 -2.03125 8.5 -2.28125 8.253906 -2.464844 C 7.886719 -2.773438 7.515625 -2.957031 7.207031 -3.265625 C 7.023438 -3.449219 6.898438 -3.820312 6.714844 -4.003906 C 6.46875 -4.3125 6.222656 -4.683594 6.035156 -4.988281 C 5.789062 -5.359375 5.421875 -5.730469 5.234375 -6.160156 C 4.988281 -6.589844 4.929688 -7.144531 4.742188 -7.640625 L 4.496094 -8.441406 C 4.496094 -8.6875 4.375 -8.871094 4.3125 -9.117188 C 4.25 -9.300781 4.25 -9.488281 4.1875 -9.734375 C 4.128906 -9.980469 4.1875 -10.289062 4.1875 -10.597656 C 4.1875 -10.78125 4.003906 -10.964844 4.003906 -11.148438 L 4.003906 -11.582031 C 4.003906 -13.058594 4.066406 -14.539062 4.066406 -16.015625 C 4.066406 -17.433594 4.128906 -18.914062 4.128906 -20.390625 C 4.128906 -21.867188 4.066406 -23.347656 4.066406 -24.765625 C 4.066406 -26.242188 4.066406 -27.722656 4.066406 -29.199219 L 4.066406 -33.574219 C 4.066406 -35.050781 4.128906 -36.53125 4.128906 -37.949219 C 4.128906 -39.425781 4.066406 -40.90625 4.066406 -42.382812 C 4.066406 -42.507812 4.128906 -42.628906 4.1875 -42.8125 C 4.25 -42.9375 4.25 -43.121094 4.433594 -43.183594 L 4.621094 -43.183594 C 5.789062 -43.183594 6.960938 -43.058594 8.070312 -43.058594 C 9.242188 -43.058594 10.347656 -43.121094 11.519531 -43.121094 C 11.582031 -43.121094 11.644531 -43.058594 11.765625 -43.058594 C 11.890625 -43.058594 12.074219 -43 12.074219 -42.9375 C 12.136719 -42.8125 12.136719 -42.691406 12.136719 -42.566406 C 12.136719 -42.507812 12.074219 -42.445312 12.074219 -42.382812 C 12.074219 -40.90625 12.136719 -39.488281 12.136719 -38.007812 L 12.136719 -33.695312 C 12.136719 -32.28125 12.011719 -30.800781 12.011719 -29.382812 C 12.011719 -27.90625 12.074219 -26.488281 12.074219 -25.011719 C 12.074219 -23.59375 12.011719 -22.117188 12.011719 -20.699219 L 12.011719 -16.386719 C 12.011719 -14.90625 12.011719 -13.492188 12.011719 -12.011719 L 12.011719 -11.703125 C 11.949219 -11.703125 12.136719 -11.644531 12.136719 -11.582031 C 12.136719 -11.457031 12.011719 -11.335938 12.011719 -11.273438 C 12.074219 -11.089844 12.074219 -10.84375 12.136719 -10.65625 C 12.199219 -10.347656 12.320312 -10.042969 12.445312 -9.734375 C 12.566406 -9.488281 12.75 -9.300781 12.9375 -9.054688 C 13.183594 -8.746094 13.492188 -8.5 13.859375 -8.253906 C 14.167969 -8.070312 14.539062 -7.886719 14.90625 -7.824219 C 15.15625 -7.699219 15.402344 -7.640625 15.648438 -7.640625 C 16.078125 -7.640625 16.449219 -7.761719 16.878906 -7.886719 C 17.308594 -8.007812 17.742188 -8.191406 18.109375 -8.5 C 18.296875 -8.625 18.417969 -8.746094 18.542969 -8.871094 C 18.664062 -8.992188 18.851562 -9.117188 18.914062 -9.242188 C 19.097656 -9.546875 19.21875 -9.855469 19.28125 -10.164062 C 19.40625 -10.410156 19.527344 -10.65625 19.527344 -10.902344 C 19.527344 -11.089844 19.589844 -11.273438 19.589844 -11.457031 C 19.589844 -11.519531 19.589844 -11.582031 19.589844 -11.582031 L 19.589844 -11.765625 C 19.589844 -11.890625 19.40625 -12.011719 19.40625 -12.136719 C 19.40625 -13.613281 19.527344 -15.03125 19.527344 -16.507812 C 19.527344 -17.925781 19.464844 -19.34375 19.464844 -20.820312 L 19.464844 -25.132812 C 19.464844 -26.550781 19.589844 -27.96875 19.589844 -29.445312 C 19.589844 -30.863281 19.464844 -32.28125 19.464844 -33.757812 C 19.464844 -35.175781 19.527344 -36.59375 19.527344 -38.070312 C 19.527344 -39.488281 19.589844 -40.90625 19.589844 -42.382812 C 19.589844 -42.507812 19.464844 -42.628906 19.527344 -42.753906 C 19.589844 -43 19.714844 -43.058594 19.960938 -43.058594 C 20.019531 -43.058594 20.082031 -43.183594 20.082031 -43.183594 C 21.253906 -43.183594 22.363281 -43.058594 23.53125 -43.058594 C 24.640625 -43.058594 25.8125 -43.183594 26.921875 -43.183594 C 27.042969 -43.183594 27.105469 -43.183594 27.230469 -43.121094 C 27.351562 -43.121094 27.414062 -43 27.414062 -42.875 L 27.535156 -42.566406 C 27.535156 -42.507812 27.414062 -42.382812 27.414062 -42.320312 C 27.414062 -40.65625 27.535156 -38.933594 27.535156 -37.207031 C 27.535156 -35.484375 27.476562 -33.757812 27.476562 -32.09375 C 27.476562 -30.371094 27.414062 -28.644531 27.414062 -26.921875 Z M 27.414062 -26.921875" transform="translate(137.712 263.294)"/></g></g></g><g fill="#E75A59"><g><g><path d="M 3.140625 -21.683594 C 3.140625 -22.976562 3.082031 -24.332031 3.082031 -25.625 C 3.082031 -26.980469 3.203125 -28.277344 3.203125 -29.632812 C 3.203125 -30.925781 3.082031 -32.28125 3.082031 -33.574219 L 3.082031 -37.578125 C 3.082031 -38.871094 3.140625 -40.226562 3.140625 -41.519531 C 3.140625 -41.828125 3.140625 -42.074219 3.203125 -42.320312 C 3.265625 -42.566406 3.449219 -42.753906 3.632812 -42.875 C 3.820312 -43 4.003906 -42.9375 4.25 -43 C 4.742188 -43.058594 5.234375 -43.121094 5.730469 -43.121094 C 7.332031 -43.121094 8.933594 -42.9375 10.535156 -42.9375 C 13.183594 -43 15.09375 -43.058594 15.339844 -43 C 15.648438 -43 15.957031 -43.058594 16.203125 -43.058594 L 16.695312 -43.058594 C 16.878906 -43 17.0625 -42.9375 17.1875 -42.9375 C 17.742188 -42.875 18.234375 -42.628906 18.726562 -42.507812 C 19.21875 -42.382812 19.714844 -42.257812 20.207031 -42.074219 L 21.066406 -41.707031 C 21.253906 -41.644531 21.5 -41.457031 21.683594 -41.335938 C 21.929688 -41.273438 22.117188 -41.152344 22.300781 -41.089844 C 22.363281 -41.027344 22.484375 -41.089844 22.546875 -41.089844 L 23.902344 -40.164062 C 24.085938 -39.980469 24.332031 -39.734375 24.578125 -39.550781 C 24.765625 -39.363281 25.011719 -39.117188 25.257812 -38.933594 C 25.503906 -38.6875 25.625 -38.378906 25.875 -38.132812 C 26.121094 -37.824219 26.488281 -37.578125 26.734375 -37.207031 C 26.921875 -36.960938 27.105469 -36.652344 27.289062 -36.347656 C 27.535156 -36.039062 27.722656 -35.730469 27.90625 -35.421875 L 27.96875 -35.175781 C 28.214844 -34.742188 28.335938 -34.25 28.523438 -33.757812 C 28.707031 -33.328125 28.769531 -32.894531 28.890625 -32.464844 C 29.015625 -32.15625 29.136719 -31.789062 29.199219 -31.480469 C 29.324219 -31.109375 29.261719 -30.738281 29.324219 -30.371094 C 29.324219 -30.125 29.507812 -29.878906 29.507812 -29.570312 C 29.507812 -29.570312 29.445312 -29.570312 29.445312 -29.570312 L 29.445312 -28.335938 C 29.445312 -28.089844 29.382812 -27.84375 29.382812 -27.597656 C 29.382812 -27.414062 29.382812 -27.289062 29.382812 -27.167969 L 29.199219 -25.933594 C 29.136719 -25.625 29.136719 -25.320312 29.078125 -25.011719 C 28.953125 -24.578125 28.707031 -24.210938 28.523438 -23.777344 C 28.398438 -23.472656 28.335938 -23.101562 28.214844 -22.792969 C 28.03125 -22.546875 27.90625 -22.238281 27.78125 -21.992188 C 27.660156 -21.746094 27.597656 -21.4375 27.476562 -21.191406 C 27.289062 -20.882812 27.042969 -20.699219 26.859375 -20.453125 C 26.613281 -20.082031 26.367188 -19.714844 26.121094 -19.40625 C 26.058594 -19.28125 26.058594 -19.21875 26.058594 -19.097656 C 25.996094 -18.914062 25.933594 -18.726562 26.058594 -18.542969 C 26.179688 -18.359375 26.304688 -18.171875 26.488281 -17.988281 C 26.734375 -17.558594 27.105469 -17.1875 27.351562 -16.757812 C 27.535156 -16.386719 27.722656 -15.957031 27.84375 -15.585938 C 27.96875 -15.339844 28.152344 -15.15625 28.214844 -14.90625 C 28.398438 -14.476562 28.398438 -14.046875 28.523438 -13.550781 C 28.582031 -13.183594 28.832031 -12.75 28.832031 -12.382812 C 28.890625 -12.136719 28.769531 -11.828125 28.769531 -11.582031 L 28.769531 -10.472656 C 28.769531 -8.933594 28.832031 -7.390625 28.832031 -5.914062 C 28.832031 -4.375 28.832031 -2.832031 28.832031 -1.355469 L 28.832031 -0.863281 C 28.769531 -0.675781 28.707031 -0.492188 28.582031 -0.371094 L 28.398438 -0.183594 C 28.214844 -0.0625 27.96875 0 27.78125 0 C 27.722656 0 27.722656 0 27.660156 0 L 21.375 0 C 21.191406 0 21.007812 -0.0625 20.820312 -0.125 C 20.515625 -0.246094 20.207031 -0.429688 20.144531 -0.800781 C 20.144531 -0.925781 20.265625 -1.109375 20.265625 -1.230469 C 20.265625 -2.648438 20.207031 -4.066406 20.207031 -5.484375 C 20.207031 -6.898438 20.265625 -8.316406 20.265625 -9.734375 C 20.207031 -10.101562 20.082031 -10.535156 20.082031 -10.902344 C 20.019531 -11.457031 19.960938 -11.949219 19.773438 -12.382812 C 19.589844 -12.691406 19.464844 -13.058594 19.21875 -13.304688 C 18.914062 -13.613281 18.542969 -13.800781 18.109375 -13.984375 C 17.925781 -14.105469 17.679688 -14.105469 17.496094 -14.167969 C 17.125 -14.230469 16.757812 -14.414062 16.386719 -14.414062 L 16.324219 -14.414062 C 15.832031 -14.414062 15.339844 -14.351562 14.785156 -14.351562 C 14.292969 -14.351562 13.800781 -14.292969 13.246094 -14.292969 L 12.445312 -14.292969 C 12.320312 -14.230469 12.074219 -14.292969 11.949219 -14.167969 C 11.890625 -14.105469 11.828125 -14.046875 11.828125 -13.984375 C 11.765625 -13.859375 11.765625 -13.675781 11.765625 -13.492188 C 11.703125 -12.199219 11.828125 -10.84375 11.828125 -9.546875 C 11.828125 -8.253906 11.765625 -6.898438 11.765625 -5.605469 C 11.765625 -4.3125 11.828125 -2.957031 11.828125 -1.664062 C 11.828125 -1.476562 11.703125 -1.355469 11.644531 -1.171875 C 11.644531 -0.925781 11.582031 -0.675781 11.335938 -0.554688 C 11.273438 -0.492188 11.148438 -0.429688 10.964844 -0.371094 C 10.84375 -0.371094 10.65625 -0.308594 10.472656 -0.308594 C 8.441406 -0.308594 6.46875 -0.371094 4.496094 -0.371094 C 4.3125 -0.371094 4.066406 -0.246094 3.941406 -0.308594 C 3.574219 -0.371094 3.386719 -0.675781 3.265625 -1.046875 L 3.082031 -1.601562 C 3.082031 -1.726562 3.203125 -1.910156 3.203125 -2.03125 L 3.203125 -6.960938 C 3.203125 -8.625 3.203125 -10.226562 3.203125 -11.890625 L 3.203125 -16.757812 C 3.203125 -18.417969 3.140625 -20.019531 3.140625 -21.683594 Z M 11.765625 -28.644531 C 11.765625 -27.230469 11.828125 -25.875 11.828125 -24.457031 C 11.828125 -24.273438 11.765625 -24.085938 11.765625 -23.839844 L 11.765625 -23.71875 C 11.765625 -23.59375 11.890625 -23.53125 11.890625 -23.472656 C 11.949219 -23.347656 12.011719 -23.285156 12.136719 -23.164062 C 12.257812 -23.101562 12.382812 -22.976562 12.566406 -22.976562 L 14.046875 -22.976562 C 14.539062 -23.039062 15.03125 -22.976562 15.523438 -23.039062 C 15.769531 -23.039062 16.078125 -22.976562 16.324219 -23.039062 C 16.941406 -23.164062 17.433594 -23.53125 17.988281 -23.839844 C 18.296875 -24.023438 18.664062 -24.085938 18.914062 -24.332031 C 19.097656 -24.519531 19.28125 -24.703125 19.464844 -24.949219 C 19.714844 -25.195312 19.898438 -25.625 20.082031 -25.933594 C 20.265625 -26.242188 20.328125 -26.550781 20.453125 -26.859375 C 20.574219 -27.167969 20.699219 -27.476562 20.699219 -27.84375 C 20.761719 -28.089844 20.882812 -28.277344 20.882812 -28.523438 C 20.945312 -28.832031 20.820312 -29.078125 20.820312 -29.382812 C 20.761719 -29.816406 20.636719 -30.183594 20.515625 -30.617188 C 20.390625 -30.984375 20.207031 -31.417969 19.960938 -31.789062 L 19.34375 -32.527344 C 19.160156 -32.773438 18.789062 -32.894531 18.542969 -33.082031 C 18.234375 -33.265625 17.988281 -33.449219 17.679688 -33.636719 L 16.816406 -34.003906 C 16.570312 -34.066406 16.386719 -34.128906 16.140625 -34.128906 C 16.015625 -34.191406 15.832031 -34.3125 15.707031 -34.3125 C 15.523438 -34.3125 15.277344 -34.25 15.09375 -34.25 L 12.691406 -34.25 C 12.566406 -34.25 12.445312 -34.191406 12.320312 -34.191406 C 12.074219 -34.191406 11.949219 -33.941406 11.890625 -33.757812 C 11.890625 -33.449219 11.765625 -33.203125 11.765625 -32.894531 Z M 11.765625 -28.644531" transform="translate(170.543 263.294)"/></g></g></g><g fill="#E75A59"><g><g><path d="M 18.480469 -17.496094 C 18.480469 -12.445312 18.417969 -7.332031 18.359375 -2.21875 C 18.359375 -1.601562 18.359375 -0.925781 17.863281 -0.492188 C 17.496094 -0.125 16.941406 -0.0625 16.449219 -0.0625 C 14.90625 0 13.429688 0 11.949219 -0.125 C 11.398438 -0.125 10.78125 -0.183594 10.289062 -0.492188 C 9.734375 -0.863281 9.734375 -1.417969 9.792969 -2.03125 C 9.855469 -2.773438 9.792969 -3.574219 9.792969 -4.3125 L 9.792969 -9.425781 C 9.792969 -12.875 9.792969 -16.261719 9.792969 -19.714844 L 9.792969 -32.589844 C 9.792969 -33.082031 9.734375 -33.636719 9.425781 -34.003906 C 9.054688 -34.3125 8.5 -34.375 8.007812 -34.3125 L 5.851562 -34.3125 C 4.988281 -34.3125 4.003906 -34.375 3.449219 -35.050781 C 3.082031 -35.546875 3.082031 -36.222656 3.082031 -36.839844 C 3.082031 -38.007812 3.082031 -39.242188 3.140625 -40.410156 C 3.140625 -41.273438 3.203125 -42.257812 3.941406 -42.691406 C 4.3125 -42.9375 4.804688 -43 5.296875 -43 C 11.273438 -43.183594 17.25 -43.183594 23.222656 -42.9375 C 23.65625 -42.9375 24.148438 -42.9375 24.519531 -42.628906 C 24.886719 -42.257812 24.949219 -41.765625 25.011719 -41.273438 C 25.195312 -39.488281 25.195312 -37.699219 25.074219 -35.914062 C 25.011719 -35.484375 25.011719 -35.113281 24.703125 -34.804688 C 24.394531 -34.496094 23.964844 -34.4375 23.53125 -34.375 C 22.484375 -34.3125 21.4375 -34.3125 20.453125 -34.375 C 20.019531 -34.375 19.652344 -34.375 19.28125 -34.25 C 18.480469 -33.882812 18.417969 -32.835938 18.417969 -31.972656 C 18.417969 -27.167969 18.480469 -22.363281 18.480469 -17.496094 Z M 18.480469 -17.496094" transform="translate(203.435 263.294)"/></g></g></g><g fill="#E75A59"><g><g><path d="M 27.722656 -21.5625 C 27.722656 -20.207031 27.78125 -18.851562 27.78125 -17.433594 C 27.78125 -16.078125 27.84375 -14.722656 27.84375 -13.367188 L 27.84375 -9.242188 C 27.84375 -7.886719 27.78125 -6.46875 27.78125 -5.113281 C 27.78125 -3.757812 27.722656 -2.402344 27.722656 -0.984375 C 27.722656 -0.863281 27.84375 -0.675781 27.84375 -0.492188 C 27.84375 -0.308594 27.597656 -0.0625 27.414062 0 L 27.167969 0 C 26.734375 0.0625 26.242188 0.0625 25.8125 0.0625 C 23.964844 0.0625 22.175781 -0.0625 20.328125 -0.0625 C 20.144531 -0.0625 19.898438 0.0625 19.714844 0 C 19.527344 -0.0625 19.40625 -0.308594 19.40625 -0.554688 C 19.34375 -0.738281 19.21875 -0.984375 19.21875 -1.171875 C 19.21875 -2.402344 19.28125 -3.574219 19.28125 -4.804688 C 19.28125 -6.035156 19.40625 -7.207031 19.40625 -8.441406 C 19.40625 -8.5625 19.34375 -8.6875 19.34375 -8.746094 C 19.28125 -8.933594 19.097656 -8.992188 18.972656 -9.054688 L 18.605469 -9.054688 C 16.449219 -9.054688 14.351562 -9.179688 12.257812 -9.179688 C 12.136719 -9.179688 12.011719 -9.179688 11.890625 -9.117188 C 11.703125 -9.117188 11.582031 -8.992188 11.582031 -8.808594 C 11.519531 -8.6875 11.519531 -8.5 11.519531 -8.378906 C 11.519531 -7.761719 11.457031 -7.144531 11.457031 -6.589844 C 11.457031 -4.683594 11.519531 -2.773438 11.519531 -0.863281 C 11.519531 -0.738281 11.582031 -0.617188 11.582031 -0.492188 C 11.519531 -0.183594 11.273438 0 10.964844 0.0625 C 10.71875 0.0625 10.472656 0 10.226562 0 C 8.191406 0 6.160156 -0.0625 4.128906 -0.0625 C 3.941406 -0.0625 3.757812 -0.0625 3.574219 -0.125 C 3.386719 -0.183594 3.203125 -0.308594 3.203125 -0.492188 C 3.140625 -0.675781 3.082031 -0.863281 3.082031 -1.046875 C 3.082031 -2.585938 3.082031 -4.128906 3.082031 -5.667969 L 3.082031 -10.289062 C 3.082031 -11.828125 3.203125 -13.367188 3.203125 -14.90625 C 3.203125 -16.449219 3.140625 -17.988281 3.140625 -19.527344 C 3.140625 -21.007812 3.140625 -22.546875 3.140625 -24.085938 L 3.140625 -25.195312 C 3.203125 -25.503906 3.203125 -25.8125 3.265625 -26.121094 C 3.265625 -26.425781 3.328125 -26.796875 3.328125 -27.105469 C 3.386719 -27.84375 3.449219 -28.582031 3.632812 -29.261719 C 3.695312 -29.691406 3.882812 -30.125 4.003906 -30.554688 C 4.128906 -31.046875 4.25 -31.480469 4.433594 -31.972656 C 4.558594 -32.402344 4.742188 -32.835938 4.929688 -33.265625 C 5.050781 -33.511719 5.050781 -33.757812 5.175781 -34.003906 C 5.359375 -34.375 5.542969 -34.683594 5.730469 -34.992188 C 5.851562 -35.238281 5.914062 -35.484375 6.035156 -35.667969 C 6.160156 -35.851562 6.34375 -35.976562 6.46875 -36.160156 C 6.652344 -36.40625 6.714844 -36.652344 6.898438 -36.839844 L 7.515625 -37.578125 C 7.886719 -38.007812 8.253906 -38.378906 8.6875 -38.75 C 8.871094 -38.933594 9.117188 -39.054688 9.300781 -39.179688 C 9.363281 -39.300781 9.425781 -39.488281 9.546875 -39.550781 C 9.792969 -39.734375 10.042969 -39.796875 10.289062 -39.980469 C 10.65625 -40.226562 10.964844 -40.597656 11.335938 -40.78125 L 11.890625 -41.089844 C 12.011719 -41.089844 12.136719 -41.089844 12.199219 -41.152344 C 12.382812 -41.210938 12.503906 -41.335938 12.691406 -41.398438 C 13 -41.582031 13.367188 -41.765625 13.738281 -41.890625 C 13.984375 -42.011719 14.230469 -42.074219 14.476562 -42.136719 C 14.90625 -42.257812 15.339844 -42.382812 15.707031 -42.445312 C 16.261719 -42.628906 16.816406 -42.753906 17.308594 -42.875 C 17.679688 -42.9375 18.050781 -42.875 18.359375 -42.9375 C 18.605469 -42.9375 18.914062 -43 19.160156 -43 C 19.464844 -43.058594 19.835938 -43.058594 20.144531 -43.058594 C 20.574219 -43.121094 20.945312 -43.183594 21.375 -43.183594 L 24.640625 -43.183594 C 25.566406 -43.121094 27.351562 -42.8125 27.660156 -41.457031 C 27.96875 -40.226562 27.84375 -38.996094 27.84375 -37.761719 C 27.84375 -36.59375 27.84375 -35.484375 27.84375 -34.375 L 27.84375 -33.941406 C 27.84375 -32.589844 27.78125 -31.171875 27.78125 -29.816406 C 27.78125 -28.460938 27.722656 -27.042969 27.722656 -25.6875 Z M 19.40625 -26.058594 C 19.40625 -27.351562 19.34375 -28.644531 19.34375 -29.9375 C 19.34375 -31.234375 19.28125 -32.527344 19.28125 -33.820312 L 19.28125 -34.003906 C 19.28125 -34.128906 19.28125 -34.25 19.21875 -34.375 C 19.097656 -34.496094 18.972656 -34.558594 18.851562 -34.558594 C 18.664062 -34.558594 18.542969 -34.4375 18.417969 -34.4375 C 18.171875 -34.375 17.988281 -34.375 17.804688 -34.375 C 17.433594 -34.25 17.125 -34.191406 16.816406 -34.128906 C 16.570312 -34.066406 16.324219 -33.941406 16.140625 -33.882812 C 15.957031 -33.757812 15.707031 -33.757812 15.523438 -33.695312 C 15.03125 -33.449219 14.722656 -33.082031 14.292969 -32.710938 C 13.984375 -32.464844 13.675781 -32.21875 13.429688 -31.910156 C 13.183594 -31.539062 13 -31.046875 12.8125 -30.617188 C 12.628906 -30.308594 12.445312 -30.0625 12.320312 -29.691406 C 12.136719 -29.199219 11.949219 -28.707031 11.828125 -28.214844 C 11.703125 -27.597656 11.644531 -27.042969 11.582031 -26.425781 C 11.582031 -26.121094 11.644531 -25.8125 11.582031 -25.503906 L 11.582031 -24.519531 C 11.582031 -23.902344 11.457031 -23.285156 11.457031 -22.667969 L 11.457031 -18.296875 C 11.457031 -18.109375 11.519531 -17.988281 11.582031 -17.863281 C 11.582031 -17.679688 11.765625 -17.558594 11.890625 -17.558594 C 12.011719 -17.496094 12.136719 -17.496094 12.257812 -17.496094 C 14.351562 -17.496094 16.507812 -17.496094 18.605469 -17.558594 C 18.726562 -17.558594 18.851562 -17.617188 18.972656 -17.617188 C 19.097656 -17.679688 19.160156 -17.742188 19.21875 -17.925781 L 19.28125 -18.171875 C 19.28125 -19.527344 19.40625 -20.820312 19.40625 -22.117188 Z M 19.40625 -26.058594" transform="translate(232.879 263.294)"/></g></g></g><g fill="#E75A59"><g><g><path d="M 3.511719 0.371094 L 3.019531 0.371094 C 2.832031 0.371094 2.585938 0.429688 2.402344 0.371094 C 2.15625 0.371094 2.03125 0.125 1.847656 -0.0625 C 1.785156 -0.183594 1.601562 -0.308594 1.539062 -0.492188 C 1.539062 -0.675781 1.601562 -0.925781 1.601562 -1.109375 L 1.601562 -5.234375 C 1.601562 -5.542969 1.539062 -5.789062 1.601562 -6.097656 C 1.664062 -6.34375 1.785156 -6.53125 2.03125 -6.714844 C 2.15625 -6.839844 2.28125 -6.898438 2.464844 -6.898438 C 2.648438 -6.960938 2.773438 -6.898438 2.957031 -6.960938 C 3.203125 -6.960938 3.386719 -7.023438 3.574219 -7.023438 C 3.941406 -7.085938 4.375 -7.085938 4.742188 -7.144531 C 5.234375 -7.332031 5.605469 -7.640625 6.035156 -7.945312 C 6.34375 -8.191406 6.652344 -8.441406 6.839844 -8.808594 C 7.023438 -9.117188 7.207031 -9.363281 7.332031 -9.671875 C 7.453125 -10.042969 7.578125 -10.410156 7.578125 -10.78125 C 7.640625 -11.089844 7.578125 -11.398438 7.578125 -11.644531 C 7.640625 -11.890625 7.640625 -12.136719 7.640625 -12.445312 L 7.640625 -17.25 C 7.699219 -18.851562 7.578125 -20.453125 7.578125 -22.054688 C 7.578125 -23.65625 7.578125 -25.257812 7.578125 -26.859375 L 7.578125 -31.664062 C 7.578125 -33.265625 7.699219 -34.867188 7.699219 -36.46875 L 7.699219 -41.273438 C 7.699219 -41.582031 7.699219 -41.828125 7.761719 -42.136719 C 7.824219 -42.382812 7.886719 -42.566406 8.132812 -42.753906 C 8.253906 -42.875 8.378906 -43 8.5625 -43 C 8.746094 -43.058594 8.992188 -43.121094 9.242188 -43.121094 C 10.597656 -43.121094 11.949219 -43.058594 13.304688 -43.058594 C 13.613281 -43.058594 13.859375 -43.058594 14.167969 -43 C 14.414062 -42.9375 14.660156 -42.8125 14.847656 -42.628906 C 14.96875 -42.507812 15.09375 -42.320312 15.09375 -42.136719 C 15.15625 -41.953125 15.09375 -41.707031 15.09375 -41.519531 C 15.09375 -40.105469 15.03125 -38.75 15.03125 -37.332031 C 15.03125 -35.976562 15.03125 -34.558594 15.03125 -33.140625 L 15.03125 -29.015625 C 15.03125 -27.597656 15.09375 -26.179688 15.09375 -24.824219 L 15.09375 -20.636719 C 15.09375 -19.21875 15.15625 -17.863281 15.15625 -16.449219 C 15.15625 -15.03125 15.15625 -13.675781 15.15625 -12.257812 L 15.15625 -11.457031 C 15.15625 -11.210938 15.03125 -11.027344 15.03125 -10.84375 C 15.03125 -10.597656 14.90625 -10.347656 14.90625 -10.101562 C 14.847656 -9.609375 14.847656 -9.117188 14.722656 -8.6875 C 14.660156 -8.378906 14.539062 -8.132812 14.476562 -7.886719 C 14.414062 -7.578125 14.476562 -7.269531 14.351562 -7.023438 L 13.984375 -6.160156 C 13.859375 -5.976562 13.800781 -5.667969 13.675781 -5.484375 C 13.492188 -5.113281 13.304688 -4.804688 13.121094 -4.496094 C 12.9375 -4.1875 12.628906 -3.882812 12.382812 -3.574219 C 12.199219 -3.386719 12.074219 -3.265625 11.949219 -3.082031 C 11.703125 -2.894531 11.519531 -2.710938 11.335938 -2.527344 L 10.78125 -1.972656 C 10.597656 -1.847656 10.472656 -1.601562 10.226562 -1.476562 C 9.980469 -1.292969 9.671875 -1.109375 9.363281 -0.925781 C 9.179688 -0.800781 8.933594 -0.800781 8.6875 -0.675781 C 8.378906 -0.492188 8.070312 -0.308594 7.699219 -0.183594 C 7.699219 -0.246094 5.789062 0.183594 5.421875 0.246094 C 5.234375 0.246094 5.050781 0.308594 4.804688 0.308594 C 4.683594 0.308594 4.621094 0.429688 4.496094 0.429688 C 4.1875 0.492188 3.820312 0.371094 3.511719 0.371094 Z M 3.511719 0.371094" transform="translate(265.956 263.294)"/></g></g></g><g fill="#FFF"><g><g><path d="M 12.5 -11.578125 L 20.078125 -11.578125 L 20.078125 -0.828125 C 18.890625 -0.441406 17.691406 -0.15625 16.484375 0.03125 C 15.273438 0.21875 13.90625 0.3125 12.375 0.3125 C 10.101562 0.3125 8.1875 -0.140625 6.625 -1.046875 C 5.070312 -1.960938 3.890625 -3.265625 3.078125 -4.953125 C 2.273438 -6.640625 1.875 -8.644531 1.875 -10.96875 C 1.875 -13.238281 2.316406 -15.21875 3.203125 -16.90625 C 4.097656 -18.59375 5.394531 -19.898438 7.09375 -20.828125 C 8.789062 -21.765625 10.835938 -22.234375 13.234375 -22.234375 C 14.460938 -22.234375 15.625 -22.117188 16.71875 -21.890625 C 17.8125 -21.660156 18.828125 -21.34375 19.765625 -20.9375 L 18.734375 -18.546875 C 17.953125 -18.867188 17.070312 -19.15625 16.09375 -19.40625 C 15.125 -19.664062 14.117188 -19.796875 13.078125 -19.796875 C 10.460938 -19.796875 8.421875 -19.003906 6.953125 -17.421875 C 5.492188 -15.835938 4.765625 -13.6875 4.765625 -10.96875 C 4.765625 -9.21875 5.046875 -7.671875 5.609375 -6.328125 C 6.171875 -4.992188 7.054688 -3.953125 8.265625 -3.203125 C 9.472656 -2.460938 11.054688 -2.09375 13.015625 -2.09375 C 13.984375 -2.09375 14.800781 -2.140625 15.46875 -2.234375 C 16.144531 -2.335938 16.757812 -2.460938 17.3125 -2.609375 L 17.3125 -9.125 L 12.5 -9.125 Z M 12.5 -11.578125" transform="translate(135.834 301.226)"/></g></g></g><g fill="#FFF"><g><g><path d="M 19.65625 -21.921875 L 19.65625 -7.734375 C 19.65625 -6.222656 19.347656 -4.859375 18.734375 -3.640625 C 18.117188 -2.421875 17.175781 -1.457031 15.90625 -0.75 C 14.632812 -0.0390625 13.035156 0.3125 11.109375 0.3125 C 8.367188 0.3125 6.289062 -0.425781 4.875 -1.90625 C 3.46875 -3.394531 2.765625 -5.359375 2.765625 -7.796875 L 2.765625 -21.921875 L 5.53125 -21.921875 L 5.53125 -7.703125 C 5.53125 -5.921875 6.003906 -4.539062 6.953125 -3.5625 C 7.898438 -2.582031 9.335938 -2.09375 11.265625 -2.09375 C 13.253906 -2.09375 14.691406 -2.617188 15.578125 -3.671875 C 16.472656 -4.722656 16.921875 -6.078125 16.921875 -7.734375 L 16.921875 -21.921875 Z M 19.65625 -21.921875" transform="translate(158.178 301.226)"/></g></g></g><g fill="#FFF"><g><g><path d="M 9.15625 0 L 1.234375 0 L 1.234375 -1.59375 L 3.8125 -2.1875 L 3.8125 -19.71875 L 1.234375 -20.328125 L 1.234375 -21.921875 L 9.15625 -21.921875 L 9.15625 -20.328125 L 6.578125 -19.71875 L 6.578125 -2.1875 L 9.15625 -1.59375 Z M 9.15625 0" transform="translate(180.614 301.226)"/></g></g></g><g fill="#FFF"><g><g><path d="M 9.921875 0 L 7.15625 0 L 7.15625 -19.5 L 0.3125 -19.5 L 0.3125 -21.921875 L 16.734375 -21.921875 L 16.734375 -19.5 L 9.921875 -19.5 Z M 9.921875 0" transform="translate(191.019 301.226)"/></g></g></g><g fill="#FFF"><g><g><path d="M 16.734375 0 L 14.09375 -6.78125 L 5.40625 -6.78125 L 2.796875 0 L 0 0 L 8.5625 -22.015625 L 11.046875 -22.015625 L 19.59375 0 Z M 13.265625 -9.234375 L 10.8125 -15.875 C 10.75 -16.039062 10.644531 -16.335938 10.5 -16.765625 C 10.351562 -17.191406 10.210938 -17.632812 10.078125 -18.09375 C 9.953125 -18.5625 9.847656 -18.914062 9.765625 -19.15625 C 9.597656 -18.519531 9.425781 -17.898438 9.25 -17.296875 C 9.082031 -16.691406 8.9375 -16.21875 8.8125 -15.875 L 6.328125 -9.234375 Z M 13.265625 -9.234375" transform="translate(208.084 301.226)"/></g></g></g><g fill="#FFF"><g><g><path d="M 9.03125 -21.921875 C 11.75 -21.921875 13.757812 -21.40625 15.0625 -20.375 C 16.363281 -19.34375 17.015625 -17.78125 17.015625 -15.6875 C 17.015625 -14.519531 16.796875 -13.546875 16.359375 -12.765625 C 15.929688 -11.992188 15.382812 -11.367188 14.71875 -10.890625 C 14.050781 -10.421875 13.351562 -10.066406 12.625 -9.828125 L 18.640625 0 L 15.40625 0 L 10.09375 -9.0625 L 5.734375 -9.0625 L 5.734375 0 L 2.984375 0 L 2.984375 -21.921875 Z M 8.875 -19.53125 L 5.734375 -19.53125 L 5.734375 -11.390625 L 9.03125 -11.390625 C 10.8125 -11.390625 12.109375 -11.742188 12.921875 -12.453125 C 13.742188 -13.160156 14.15625 -14.195312 14.15625 -15.5625 C 14.15625 -17 13.722656 -18.019531 12.859375 -18.625 C 12.003906 -19.226562 10.675781 -19.53125 8.875 -19.53125 Z M 8.875 -19.53125" transform="translate(227.696 301.226)"/></g></g></g><g fill="#FFF"><g><g><path d="M 15.40625 -5.859375 C 15.40625 -3.921875 14.695312 -2.40625 13.28125 -1.3125 C 11.875 -0.226562 9.972656 0.3125 7.578125 0.3125 C 6.347656 0.3125 5.210938 0.21875 4.171875 0.03125 C 3.128906 -0.15625 2.257812 -0.410156 1.5625 -0.734375 L 1.5625 -3.375 C 2.300781 -3.050781 3.21875 -2.753906 4.3125 -2.484375 C 5.40625 -2.222656 6.535156 -2.09375 7.703125 -2.09375 C 9.316406 -2.09375 10.546875 -2.40625 11.390625 -3.03125 C 12.234375 -3.664062 12.65625 -4.53125 12.65625 -5.625 C 12.65625 -6.332031 12.5 -6.929688 12.1875 -7.421875 C 11.882812 -7.921875 11.351562 -8.375 10.59375 -8.78125 C 9.832031 -9.1875 8.796875 -9.632812 7.484375 -10.125 C 5.609375 -10.800781 4.195312 -11.628906 3.25 -12.609375 C 2.3125 -13.597656 1.84375 -14.941406 1.84375 -16.640625 C 1.84375 -17.785156 2.140625 -18.773438 2.734375 -19.609375 C 3.328125 -20.453125 4.144531 -21.097656 5.1875 -21.546875 C 6.226562 -22.003906 7.445312 -22.234375 8.84375 -22.234375 C 10.03125 -22.234375 11.125 -22.117188 12.125 -21.890625 C 13.125 -21.660156 14.046875 -21.363281 14.890625 -21 L 14.03125 -18.640625 C 13.269531 -18.960938 12.4375 -19.234375 11.53125 -19.453125 C 10.632812 -19.679688 9.71875 -19.796875 8.78125 -19.796875 C 7.40625 -19.796875 6.367188 -19.503906 5.671875 -18.921875 C 4.984375 -18.335938 4.640625 -17.566406 4.640625 -16.609375 C 4.640625 -15.867188 4.789062 -15.253906 5.09375 -14.765625 C 5.40625 -14.273438 5.90625 -13.828125 6.59375 -13.421875 C 7.289062 -13.023438 8.234375 -12.613281 9.421875 -12.1875 C 10.710938 -11.71875 11.800781 -11.210938 12.6875 -10.671875 C 13.582031 -10.128906 14.257812 -9.476562 14.71875 -8.71875 C 15.175781 -7.957031 15.40625 -7.003906 15.40625 -5.859375 Z M 15.40625 -5.859375" transform="translate(246.787 301.226)"/></g></g></g><g fill="#FFF"><g><g><path d="M 8.84375 -1.5625 L 8.84375 0 L 1.34375 0 L 1.34375 -10 L 8.65625 -10 L 8.65625 -8.453125 L 3.203125 -8.453125 L 3.203125 -5.84375 L 8.03125 -5.84375 L 8.03125 -4.3125 L 3.203125 -4.3125 L 3.203125 -1.5625 Z M 8.84375 -1.5625" transform="translate(53.113 130.978)"/></g></g></g><g fill="#FFF"><g><g><path d="M 4.453125 0.140625 C 3.671875 0.140625 2.921875 0.03125 2.203125 -0.1875 C 1.484375 -0.40625 0.914062 -0.695312 0.5 -1.0625 L 1.140625 -2.5 C 1.554688 -2.175781 2.0625 -1.910156 2.65625 -1.703125 C 3.25 -1.503906 3.847656 -1.40625 4.453125 -1.40625 C 5.191406 -1.40625 5.742188 -1.519531 6.109375 -1.75 C 6.472656 -1.988281 6.65625 -2.304688 6.65625 -2.703125 C 6.65625 -2.984375 6.550781 -3.21875 6.34375 -3.40625 C 6.144531 -3.59375 5.890625 -3.738281 5.578125 -3.84375 C 5.265625 -3.945312 4.832031 -4.066406 4.28125 -4.203125 C 3.519531 -4.378906 2.90625 -4.554688 2.4375 -4.734375 C 1.96875 -4.921875 1.5625 -5.207031 1.21875 -5.59375 C 0.882812 -5.976562 0.71875 -6.5 0.71875 -7.15625 C 0.71875 -7.707031 0.863281 -8.207031 1.15625 -8.65625 C 1.457031 -9.113281 1.910156 -9.476562 2.515625 -9.75 C 3.128906 -10.019531 3.875 -10.15625 4.75 -10.15625 C 5.351562 -10.15625 5.953125 -10.078125 6.546875 -9.921875 C 7.140625 -9.765625 7.648438 -9.546875 8.078125 -9.265625 L 7.484375 -7.828125 C 7.046875 -8.078125 6.585938 -8.269531 6.109375 -8.40625 C 5.640625 -8.539062 5.179688 -8.609375 4.734375 -8.609375 C 3.992188 -8.609375 3.445312 -8.484375 3.09375 -8.234375 C 2.738281 -7.984375 2.5625 -7.65625 2.5625 -7.25 C 2.5625 -6.957031 2.660156 -6.722656 2.859375 -6.546875 C 3.066406 -6.367188 3.328125 -6.226562 3.640625 -6.125 C 3.960938 -6.019531 4.394531 -5.898438 4.9375 -5.765625 C 5.675781 -5.585938 6.285156 -5.40625 6.765625 -5.21875 C 7.242188 -5.039062 7.648438 -4.757812 7.984375 -4.375 C 8.328125 -3.988281 8.5 -3.472656 8.5 -2.828125 C 8.5 -2.273438 8.347656 -1.773438 8.046875 -1.328125 C 7.742188 -0.878906 7.285156 -0.519531 6.671875 -0.25 C 6.066406 0.0078125 5.328125 0.140625 4.453125 0.140625 Z M 4.453125 0.140625" transform="translate(64.152 130.978)"/></g></g></g><g fill="#FFF"><g><g><path d="M 3.375 -8.4375 L 0.0625 -8.4375 L 0.0625 -10 L 8.546875 -10 L 8.546875 -8.4375 L 5.234375 -8.4375 L 5.234375 0 L 3.375 0 Z M 3.375 -8.4375" transform="translate(74.604 130.978)"/></g></g></g><g fill="#FFF"><g><g><path d="M 1.34375 -10 L 5.71875 -10 C 6.78125 -10 7.726562 -9.789062 8.5625 -9.375 C 9.394531 -8.96875 10.039062 -8.382812 10.5 -7.625 C 10.957031 -6.863281 11.1875 -5.988281 11.1875 -5 C 11.1875 -4.007812 10.957031 -3.132812 10.5 -2.375 C 10.039062 -1.625 9.394531 -1.039062 8.5625 -0.625 C 7.726562 -0.207031 6.78125 0 5.71875 0 L 1.34375 0 Z M 5.640625 -1.578125 C 6.367188 -1.578125 7.007812 -1.71875 7.5625 -2 C 8.125 -2.28125 8.554688 -2.675781 8.859375 -3.1875 C 9.160156 -3.707031 9.3125 -4.3125 9.3125 -5 C 9.3125 -5.6875 9.160156 -6.289062 8.859375 -6.8125 C 8.554688 -7.332031 8.125 -7.734375 7.5625 -8.015625 C 7.007812 -8.296875 6.367188 -8.4375 5.640625 -8.4375 L 3.203125 -8.4375 L 3.203125 -1.578125 Z M 5.640625 -1.578125" transform="translate(84.67 130.978)"/></g></g></g><g fill="#FFF"><g><g><path d="M 8.03125 -1.890625 L 8.03125 0 L 0.46875 0 L 0.46875 -1.5 L 4.328125 -5.140625 C 4.742188 -5.535156 5.019531 -5.875 5.15625 -6.15625 C 5.300781 -6.4375 5.375 -6.710938 5.375 -6.984375 C 5.375 -7.390625 5.238281 -7.695312 4.96875 -7.90625 C 4.695312 -8.125 4.300781 -8.234375 3.78125 -8.234375 C 3.332031 -8.234375 2.929688 -8.148438 2.578125 -7.984375 C 2.234375 -7.816406 1.941406 -7.566406 1.703125 -7.234375 L 0.015625 -8.328125 C 0.398438 -8.898438 0.9375 -9.347656 1.625 -9.671875 C 2.3125 -10.003906 3.097656 -10.171875 3.984375 -10.171875 C 4.734375 -10.171875 5.382812 -10.050781 5.9375 -9.8125 C 6.5 -9.570312 6.929688 -9.226562 7.234375 -8.78125 C 7.546875 -8.34375 7.703125 -7.820312 7.703125 -7.21875 C 7.703125 -6.675781 7.585938 -6.164062 7.359375 -5.6875 C 7.128906 -5.207031 6.6875 -4.664062 6.03125 -4.0625 L 3.734375 -1.890625 Z M 8.03125 -1.890625" transform="translate(297.935 131.44)"/></g></g></g><g fill="#FFF"><g><g><path d="M 4.84375 0.171875 C 4.019531 0.171875 3.28125 -0.03125 2.625 -0.4375 C 1.976562 -0.851562 1.472656 -1.445312 1.109375 -2.21875 C 0.742188 -3 0.5625 -3.925781 0.5625 -5 C 0.5625 -6.082031 0.742188 -7.007812 1.109375 -7.78125 C 1.472656 -8.5625 1.976562 -9.15625 2.625 -9.5625 C 3.28125 -9.96875 4.019531 -10.171875 4.84375 -10.171875 C 5.675781 -10.171875 6.414062 -9.96875 7.0625 -9.5625 C 7.707031 -9.15625 8.210938 -8.5625 8.578125 -7.78125 C 8.953125 -7.007812 9.140625 -6.082031 9.140625 -5 C 9.140625 -3.925781 8.953125 -3 8.578125 -2.21875 C 8.210938 -1.445312 7.707031 -0.851562 7.0625 -0.4375 C 6.414062 -0.03125 5.675781 0.171875 4.84375 0.171875 Z M 4.84375 -1.78125 C 5.457031 -1.78125 5.9375 -2.039062 6.28125 -2.5625 C 6.632812 -3.09375 6.8125 -3.90625 6.8125 -5 C 6.8125 -6.09375 6.632812 -6.898438 6.28125 -7.421875 C 5.9375 -7.953125 5.457031 -8.21875 4.84375 -8.21875 C 4.25 -8.21875 3.773438 -7.953125 3.421875 -7.421875 C 3.078125 -6.898438 2.90625 -6.09375 2.90625 -5 C 2.90625 -3.90625 3.078125 -3.09375 3.421875 -2.5625 C 3.773438 -2.039062 4.25 -1.78125 4.84375 -1.78125 Z M 4.84375 -1.78125" transform="translate(307.831 131.44)"/></g></g></g><g fill="#FFF"><g><g><path d="M 4.421875 -10 L 4.421875 0 L 2.109375 0 L 2.109375 -8.15625 L 0.09375 -8.15625 L 0.09375 -10 Z M 4.421875 -10" transform="translate(319 131.44)"/></g></g></g><g fill="#FFF"><g><g><path d="M 5.375 -6.28125 C 6.007812 -6.28125 6.585938 -6.148438 7.109375 -5.890625 C 7.640625 -5.628906 8.054688 -5.265625 8.359375 -4.796875 C 8.671875 -4.328125 8.828125 -3.78125 8.828125 -3.15625 C 8.828125 -2.488281 8.660156 -1.898438 8.328125 -1.390625 C 7.992188 -0.890625 7.535156 -0.503906 6.953125 -0.234375 C 6.378906 0.0351562 5.738281 0.171875 5.03125 0.171875 C 3.632812 0.171875 2.539062 -0.253906 1.75 -1.109375 C 0.957031 -1.972656 0.5625 -3.203125 0.5625 -4.796875 C 0.5625 -5.921875 0.773438 -6.890625 1.203125 -7.703125 C 1.628906 -8.515625 2.222656 -9.128906 2.984375 -9.546875 C 3.753906 -9.960938 4.644531 -10.171875 5.65625 -10.171875 C 6.195312 -10.171875 6.710938 -10.113281 7.203125 -10 C 7.691406 -9.882812 8.109375 -9.71875 8.453125 -9.5 L 7.59375 -7.796875 C 7.09375 -8.128906 6.46875 -8.296875 5.71875 -8.296875 C 4.875 -8.296875 4.203125 -8.046875 3.703125 -7.546875 C 3.203125 -7.054688 2.9375 -6.335938 2.90625 -5.390625 C 3.488281 -5.984375 4.3125 -6.28125 5.375 -6.28125 Z M 4.90625 -1.5625 C 5.394531 -1.5625 5.796875 -1.691406 6.109375 -1.953125 C 6.421875 -2.222656 6.578125 -2.585938 6.578125 -3.046875 C 6.578125 -3.503906 6.421875 -3.867188 6.109375 -4.140625 C 5.796875 -4.410156 5.382812 -4.546875 4.875 -4.546875 C 4.375 -4.546875 3.957031 -4.40625 3.625 -4.125 C 3.300781 -3.84375 3.140625 -3.484375 3.140625 -3.046875 C 3.140625 -2.609375 3.296875 -2.25 3.609375 -1.96875 C 3.929688 -1.695312 4.363281 -1.5625 4.90625 -1.5625 Z M 4.90625 -1.5625" transform="translate(326.064 131.44)"/></g></g></g></svg>