<svg xmlns="http://www.w3.org/2000/svg" width="375" viewBox="0 0 375 375" height="375" version="1.0"><defs><clipPath id="a"><path d="M 29 171 L 123 171 L 123 298 L 29 298 Z M 29 171"/></clipPath><clipPath id="b"><path d="M -52.011719 201.132812 L 72.605469 71.453125 L 202.28125 196.070312 L 77.664062 325.75 Z M -52.011719 201.132812"/></clipPath><clipPath id="c"><path d="M -52.011719 201.132812 L 72.605469 71.453125 L 202.28125 196.070312 L 77.664062 325.75 Z M -52.011719 201.132812"/></clipPath><clipPath id="d"><path d="M 60 205 L 91 205 L 91 237 L 60 237 Z M 60 205"/></clipPath><clipPath id="e"><path d="M -52.011719 201.132812 L 72.605469 71.453125 L 202.28125 196.070312 L 77.664062 325.75 Z M -52.011719 201.132812"/></clipPath><clipPath id="f"><path d="M -52.011719 201.132812 L 72.605469 71.453125 L 202.28125 196.070312 L 77.664062 325.75 Z M -52.011719 201.132812"/></clipPath><clipPath id="g"><path d="M 61 263 L 92 263 L 92 269 L 61 269 Z M 61 263"/></clipPath><clipPath id="h"><path d="M -52.011719 201.132812 L 72.605469 71.453125 L 202.28125 196.070312 L 77.664062 325.75 Z M -52.011719 201.132812"/></clipPath><clipPath id="i"><path d="M -52.011719 201.132812 L 72.605469 71.453125 L 202.28125 196.070312 L 77.664062 325.75 Z M -52.011719 201.132812"/></clipPath><clipPath id="j"><path d="M 65 113 L 84 113 L 84 213 L 65 213 Z M 65 113"/></clipPath><clipPath id="k"><path d="M -52.011719 201.132812 L 72.605469 71.453125 L 202.28125 196.070312 L 77.664062 325.75 Z M -52.011719 201.132812"/></clipPath><clipPath id="l"><path d="M -52.011719 201.132812 L 72.605469 71.453125 L 202.28125 196.070312 L 77.664062 325.75 Z M -52.011719 201.132812"/></clipPath><clipPath id="m"><path d="M 60 81 L 86 81 L 86 114 L 60 114 Z M 60 81"/></clipPath><clipPath id="n"><path d="M -52.011719 201.132812 L 72.605469 71.453125 L 202.28125 196.070312 L 77.664062 325.75 Z M -52.011719 201.132812"/></clipPath><clipPath id="o"><path d="M -52.011719 201.132812 L 72.605469 71.453125 L 202.28125 196.070312 L 77.664062 325.75 Z M -52.011719 201.132812"/></clipPath><clipPath id="p"><path d="M 65 102 L 69 102 L 69 106 L 65 106 Z M 65 102"/></clipPath><clipPath id="q"><path d="M -52.011719 201.132812 L 72.605469 71.453125 L 202.28125 196.070312 L 77.664062 325.75 Z M -52.011719 201.132812"/></clipPath><clipPath id="r"><path d="M -52.011719 201.132812 L 72.605469 71.453125 L 202.28125 196.070312 L 77.664062 325.75 Z M -52.011719 201.132812"/></clipPath><clipPath id="s"><path d="M 64 95 L 68 95 L 68 100 L 64 100 Z M 64 95"/></clipPath><clipPath id="t"><path d="M -52.011719 201.132812 L 72.605469 71.453125 L 202.28125 196.070312 L 77.664062 325.75 Z M -52.011719 201.132812"/></clipPath><clipPath id="u"><path d="M -52.011719 201.132812 L 72.605469 71.453125 L 202.28125 196.070312 L 77.664062 325.75 Z M -52.011719 201.132812"/></clipPath><clipPath id="v"><path d="M 63 88 L 67 88 L 67 93 L 63 93 Z M 63 88"/></clipPath><clipPath id="w"><path d="M -52.011719 201.132812 L 72.605469 71.453125 L 202.28125 196.070312 L 77.664062 325.75 Z M -52.011719 201.132812"/></clipPath><clipPath id="x"><path d="M -52.011719 201.132812 L 72.605469 71.453125 L 202.28125 196.070312 L 77.664062 325.75 Z M -52.011719 201.132812"/></clipPath><clipPath id="y"><path d="M 77 101 L 82 101 L 82 106 L 77 106 Z M 77 101"/></clipPath><clipPath id="z"><path d="M -52.011719 201.132812 L 72.605469 71.453125 L 202.28125 196.070312 L 77.664062 325.75 Z M -52.011719 201.132812"/></clipPath><clipPath id="A"><path d="M -52.011719 201.132812 L 72.605469 71.453125 L 202.28125 196.070312 L 77.664062 325.75 Z M -52.011719 201.132812"/></clipPath><clipPath id="B"><path d="M 78 95 L 83 95 L 83 99 L 78 99 Z M 78 95"/></clipPath><clipPath id="C"><path d="M -52.011719 201.132812 L 72.605469 71.453125 L 202.28125 196.070312 L 77.664062 325.75 Z M -52.011719 201.132812"/></clipPath><clipPath id="D"><path d="M -52.011719 201.132812 L 72.605469 71.453125 L 202.28125 196.070312 L 77.664062 325.75 Z M -52.011719 201.132812"/></clipPath><clipPath id="E"><path d="M 79 88 L 83 88 L 83 92 L 79 92 Z M 79 88"/></clipPath><clipPath id="F"><path d="M -52.011719 201.132812 L 72.605469 71.453125 L 202.28125 196.070312 L 77.664062 325.75 Z M -52.011719 201.132812"/></clipPath><clipPath id="G"><path d="M -52.011719 201.132812 L 72.605469 71.453125 L 202.28125 196.070312 L 77.664062 325.75 Z M -52.011719 201.132812"/></clipPath><clipPath id="H"><path d="M 67 113 L 72 113 L 72 266 L 67 266 Z M 67 113"/></clipPath><clipPath id="I"><path d="M -52.011719 201.132812 L 72.605469 71.453125 L 202.28125 196.070312 L 77.664062 325.75 Z M -52.011719 201.132812"/></clipPath><clipPath id="J"><path d="M -52.011719 201.132812 L 72.605469 71.453125 L 202.28125 196.070312 L 77.664062 325.75 Z M -52.011719 201.132812"/></clipPath><clipPath id="K"><path d="M 70 113 L 75 113 L 75 266 L 70 266 Z M 70 113"/></clipPath><clipPath id="L"><path d="M -52.011719 201.132812 L 72.605469 71.453125 L 202.28125 196.070312 L 77.664062 325.75 Z M -52.011719 201.132812"/></clipPath><clipPath id="M"><path d="M -52.011719 201.132812 L 72.605469 71.453125 L 202.28125 196.070312 L 77.664062 325.75 Z M -52.011719 201.132812"/></clipPath><clipPath id="N"><path d="M 74 112 L 79 112 L 79 266 L 74 266 Z M 74 112"/></clipPath><clipPath id="O"><path d="M -52.011719 201.132812 L 72.605469 71.453125 L 202.28125 196.070312 L 77.664062 325.75 Z M -52.011719 201.132812"/></clipPath><clipPath id="P"><path d="M -52.011719 201.132812 L 72.605469 71.453125 L 202.28125 196.070312 L 77.664062 325.75 Z M -52.011719 201.132812"/></clipPath><clipPath id="Q"><path d="M 77 112 L 82 112 L 82 266 L 77 266 Z M 77 112"/></clipPath><clipPath id="R"><path d="M -52.011719 201.132812 L 72.605469 71.453125 L 202.28125 196.070312 L 77.664062 325.75 Z M -52.011719 201.132812"/></clipPath><clipPath id="S"><path d="M -52.011719 201.132812 L 72.605469 71.453125 L 202.28125 196.070312 L 77.664062 325.75 Z M -52.011719 201.132812"/></clipPath></defs><g clip-path="url(#a)"><g clip-path="url(#b)"><g clip-path="url(#c)"><path fill="#6E260E" d="M 104.433594 204.710938 C 104.441406 204.308594 104.445312 203.902344 104.445312 203.5 C 104.285156 185.902344 90.761719 171.546875 74.632812 171.84375 C 58.492188 172.152344 45.683594 186.679688 46.039062 204.273438 C 46.042969 204.660156 46.054688 205.039062 46.074219 205.421875 C 46.632812 216.066406 43.820312 226.621094 37.558594 234.773438 C 32.476562 241.390625 29.578125 249.367188 29.753906 257.894531 C 30.195312 280.183594 51.398438 297.835938 77.097656 297.324219 C 102.804688 296.808594 123.28125 278.328125 122.839844 256.042969 C 122.679688 247.675781 119.578125 239.953125 114.417969 233.609375 C 107.929688 225.640625 104.160156 215.347656 104.433594 204.710938"/></g></g></g><g clip-path="url(#d)"><g clip-path="url(#e)"><g clip-path="url(#f)"><path fill="#334348" d="M 90.910156 220.980469 C 91.074219 229.445312 84.351562 236.441406 75.890625 236.609375 C 67.429688 236.777344 60.4375 230.054688 60.261719 221.589844 C 60.09375 213.128906 66.816406 206.136719 75.28125 205.960938 C 83.746094 205.796875 90.742188 212.519531 90.910156 220.980469"/></g></g></g><g clip-path="url(#g)"><g clip-path="url(#h)"><g clip-path="url(#i)"><path fill="#334348" d="M 91.832031 267.527344 L 61.195312 268.136719 L 61.113281 264.09375 L 91.757812 263.476562 L 91.832031 267.527344"/></g></g></g><g clip-path="url(#j)"><g clip-path="url(#k)"><g clip-path="url(#l)"><path fill="#334348" d="M 81.246094 113.289062 L 65.628906 113.605469 L 67.601562 212.484375 L 83.210938 212.175781 L 81.246094 113.289062"/></g></g></g><g clip-path="url(#m)"><g clip-path="url(#n)"><g clip-path="url(#o)"><path fill="#6E260E" d="M 79.363281 81.515625 L 66.253906 81.777344 C 62.640625 81.847656 59.980469 85.164062 60.6875 88.707031 L 65.628906 113.605469 L 81.246094 113.289062 L 85.207031 88.222656 C 85.765625 84.648438 82.976562 81.445312 79.363281 81.515625"/></g></g></g><g clip-path="url(#p)"><g clip-path="url(#q)"><g clip-path="url(#r)"><path fill="#D9D9D9" d="M 68.910156 103.707031 C 68.921875 104.664062 68.164062 105.453125 67.207031 105.476562 C 66.253906 105.496094 65.460938 104.734375 65.433594 103.773438 C 65.421875 102.816406 66.179688 102.027344 67.136719 102.003906 C 68.097656 101.988281 68.890625 102.753906 68.910156 103.707031"/></g></g></g><g clip-path="url(#s)"><g clip-path="url(#t)"><g clip-path="url(#u)"><path fill="#D9D9D9" d="M 67.625 97.363281 C 67.644531 98.328125 66.882812 99.125 65.921875 99.136719 C 64.964844 99.164062 64.171875 98.398438 64.15625 97.441406 C 64.132812 96.480469 64.894531 95.6875 65.859375 95.667969 C 66.8125 95.648438 67.609375 96.414062 67.625 97.363281"/></g></g></g><g clip-path="url(#v)"><g clip-path="url(#w)"><g clip-path="url(#x)"><path fill="#D9D9D9" d="M 66.914062 90.445312 C 66.925781 91.402344 66.167969 92.191406 65.210938 92.214844 C 64.253906 92.230469 63.464844 91.472656 63.4375 90.511719 C 63.417969 89.546875 64.175781 88.757812 65.140625 88.742188 C 66.101562 88.726562 66.886719 89.484375 66.914062 90.445312"/></g></g></g><g clip-path="url(#y)"><g clip-path="url(#z)"><g clip-path="url(#A)"><path fill="#D9D9D9" d="M 77.582031 103.53125 C 77.605469 104.492188 78.394531 105.25 79.351562 105.234375 C 80.304688 105.21875 81.070312 104.421875 81.050781 103.46875 C 81.03125 102.503906 80.242188 101.746094 79.277344 101.765625 C 78.324219 101.785156 77.5625 102.582031 77.582031 103.53125"/></g></g></g><g clip-path="url(#B)"><g clip-path="url(#C)"><g clip-path="url(#D)"><path fill="#D9D9D9" d="M 78.609375 97.144531 C 78.628906 98.109375 79.425781 98.875 80.382812 98.847656 C 81.339844 98.835938 82.105469 98.042969 82.078125 97.082031 C 82.066406 96.125 81.273438 95.359375 80.308594 95.378906 C 79.355469 95.398438 78.589844 96.195312 78.609375 97.144531"/></g></g></g><g clip-path="url(#E)"><g clip-path="url(#F)"><g clip-path="url(#G)"><path fill="#D9D9D9" d="M 79.054688 90.195312 C 79.074219 91.160156 79.859375 91.917969 80.824219 91.898438 C 81.777344 91.878906 82.542969 91.085938 82.523438 90.132812 C 82.496094 89.175781 81.710938 88.417969 80.75 88.429688 C 79.796875 88.449219 79.035156 89.242188 79.054688 90.195312"/></g></g></g><g clip-path="url(#H)"><g clip-path="url(#I)"><g clip-path="url(#J)"><path stroke-linecap="round" transform="matrix(.06061 -.06307 -.06307 -.06061 80.307 458.585)" fill="none" stroke-linejoin="round" d="M 2746.103669 2834.899526 C 2727.287352 2816.197981 1518.895969 1607.69608 1518.895969 1607.69608" stroke="#FFF" stroke-width="10" stroke-miterlimit="10"/></g></g></g><g clip-path="url(#K)"><g clip-path="url(#L)"><g clip-path="url(#M)"><path stroke-linecap="round" transform="matrix(.06061 -.06307 -.06307 -.06061 80.307 458.585)" fill="none" stroke-linejoin="round" d="M 2774.095358 2806.802587 C 2755.405321 2788.09853 1546.921112 1579.693224 1546.921112 1579.693224" stroke="#FFF" stroke-width="10" stroke-miterlimit="10"/></g></g></g><g clip-path="url(#N)"><g clip-path="url(#O)"><g clip-path="url(#P)"><path stroke-linecap="round" transform="matrix(.06061 -.06307 -.06307 -.06061 80.307 458.585)" fill="none" stroke-linejoin="round" d="M 2802.120501 2778.79973 C 2783.399522 2760.127871 1574.975941 1551.595028 1574.975941 1551.595028" stroke="#FFF" stroke-width="10" stroke-miterlimit="10"/></g></g></g><g clip-path="url(#Q)"><g clip-path="url(#R)"><g clip-path="url(#S)"><path stroke-linecap="round" transform="matrix(.06061 -.06307 -.06307 -.06061 80.307 458.585)" fill="none" stroke-linejoin="round" d="M 2830.17533 2750.701535 L 1602.999828 1523.529031" stroke="#FFF" stroke-width="10" stroke-miterlimit="10"/></g></g></g><g fill="#FD6155" fill-opacity=".302"><g><g><path d="M 26.847656 -74.28125 C 19.140625 -72.9375 12.117188 -67.226562 10.914062 -58.917969 C 10.71875 -57.277344 10.664062 -55.746094 10.921875 -54.265625 C 12.101562 -47.496094 17.664062 -43.171875 23.050781 -38.496094 C 27.480469 -34.695312 31.542969 -31.632812 32.355469 -26.964844 C 33.453125 -20.660156 28.589844 -15.882812 23.53125 -15.003906 C 17.914062 -14.105469 12.910156 -16.601562 12.023438 -22.140625 C 12.035156 -22.542969 11.964844 -22.933594 11.914062 -23.246094 C 11.140625 -27.679688 7.832031 -29.191406 4.792969 -28.660156 C 1.679688 -28.121094 -1.117188 -25.308594 -0.359375 -20.949219 C 1.40625 -8.503906 13.699219 -2.382812 25.453125 -4.429688 C 37.90625 -6.597656 47.484375 -18.371094 45.398438 -30.355469 C 43.988281 -38.449219 37.535156 -43.742188 31.867188 -48.210938 L 30.753906 -49.058594 C 27.242188 -51.734375 24.296875 -54.832031 23.796875 -57.710938 C 23.199219 -61.136719 26.910156 -63.304688 28.714844 -63.539062 C 31.15625 -63.804688 33.167969 -62.390625 34.949219 -59.972656 C 36.382812 -57.738281 38.59375 -57 40.695312 -57.363281 C 43.5 -57.851562 45.933594 -60.441406 45.3125 -64.023438 C 45.175781 -64.800781 44.976562 -65.488281 44.59375 -66.304688 C 41.746094 -72.0625 34.785156 -75.664062 26.847656 -74.28125 Z M 26.847656 -74.28125" transform="translate(185.63 186.376)"/></g></g></g><g fill="#FD6155" fill-opacity=".302"><g><g><path d="M 34.425781 -73.113281 L 14.34375 -69.617188 C 10.546875 -68.875 8.894531 -65.460938 9.394531 -62.582031 C 9.84375 -60.011719 11.976562 -57.898438 15.945312 -58.589844 L 24.117188 -60.011719 L 18.105469 -21.757812 C 17.0625 -15.320312 14.285156 -12.832031 10.628906 -12.195312 C 9.148438 -11.9375 7.773438 -13.382812 7.652344 -14.082031 C 7.675781 -14.40625 7.609375 -14.796875 7.554688 -15.109375 C 7.027344 -18.144531 3.820312 -19.511719 0.941406 -19.007812 C -1.9375 -18.507812 -4.570312 -16.125 -3.785156 -11.609375 C -2.539062 -4.449219 5.144531 0.0664062 13.707031 -1.421875 C 20.242188 -2.5625 28.324219 -7.738281 30.375 -20.363281 L 38.554688 -71.507812 C 38.753906 -72.664062 37.851562 -73.710938 36.605469 -73.492188 Z M 34.425781 -73.113281" transform="translate(238.552 177.165)"/></g></g></g><g fill="#FD6155" fill-opacity=".502"><g><g><path d="M 26.847656 -74.28125 C 19.140625 -72.9375 12.117188 -67.226562 10.914062 -58.917969 C 10.71875 -57.277344 10.664062 -55.746094 10.921875 -54.265625 C 12.101562 -47.496094 17.664062 -43.171875 23.050781 -38.496094 C 27.480469 -34.695312 31.542969 -31.632812 32.355469 -26.964844 C 33.453125 -20.660156 28.589844 -15.882812 23.53125 -15.003906 C 17.914062 -14.105469 12.910156 -16.601562 12.023438 -22.140625 C 12.035156 -22.542969 11.964844 -22.933594 11.914062 -23.246094 C 11.140625 -27.679688 7.832031 -29.191406 4.792969 -28.660156 C 1.679688 -28.121094 -1.117188 -25.308594 -0.359375 -20.949219 C 1.40625 -8.503906 13.699219 -2.382812 25.453125 -4.429688 C 37.90625 -6.597656 47.484375 -18.371094 45.398438 -30.355469 C 43.988281 -38.449219 37.535156 -43.742188 31.867188 -48.210938 L 30.753906 -49.058594 C 27.242188 -51.734375 24.296875 -54.832031 23.796875 -57.710938 C 23.199219 -61.136719 26.910156 -63.304688 28.714844 -63.539062 C 31.15625 -63.804688 33.167969 -62.390625 34.949219 -59.972656 C 36.382812 -57.738281 38.59375 -57 40.695312 -57.363281 C 43.5 -57.851562 45.933594 -60.441406 45.3125 -64.023438 C 45.175781 -64.800781 44.976562 -65.488281 44.59375 -66.304688 C 41.746094 -72.0625 34.785156 -75.664062 26.847656 -74.28125 Z M 26.847656 -74.28125" transform="translate(181.938 182.258)"/></g></g></g><g fill="#FD6155" fill-opacity=".502"><g><g><path d="M 34.425781 -73.113281 L 14.34375 -69.617188 C 10.546875 -68.875 8.894531 -65.460938 9.394531 -62.582031 C 9.84375 -60.011719 11.976562 -57.898438 15.945312 -58.589844 L 24.117188 -60.011719 L 18.105469 -21.757812 C 17.0625 -15.320312 14.285156 -12.832031 10.628906 -12.195312 C 9.148438 -11.9375 7.773438 -13.382812 7.652344 -14.082031 C 7.675781 -14.40625 7.609375 -14.796875 7.554688 -15.109375 C 7.027344 -18.144531 3.820312 -19.511719 0.941406 -19.007812 C -1.9375 -18.507812 -4.570312 -16.125 -3.785156 -11.609375 C -2.539062 -4.449219 5.144531 0.0664062 13.707031 -1.421875 C 20.242188 -2.5625 28.324219 -7.738281 30.375 -20.363281 L 38.554688 -71.507812 C 38.753906 -72.664062 37.851562 -73.710938 36.605469 -73.492188 Z M 34.425781 -73.113281" transform="translate(234.86 173.046)"/></g></g></g><g fill="#D9D9D9"><g><g><path d="M 26.847656 -74.28125 C 19.140625 -72.9375 12.117188 -67.226562 10.914062 -58.917969 C 10.71875 -57.277344 10.664062 -55.746094 10.921875 -54.265625 C 12.101562 -47.496094 17.664062 -43.171875 23.050781 -38.496094 C 27.480469 -34.695312 31.542969 -31.632812 32.355469 -26.964844 C 33.453125 -20.660156 28.589844 -15.882812 23.53125 -15.003906 C 17.914062 -14.105469 12.910156 -16.601562 12.023438 -22.140625 C 12.035156 -22.542969 11.964844 -22.933594 11.914062 -23.246094 C 11.140625 -27.679688 7.832031 -29.191406 4.792969 -28.660156 C 1.679688 -28.121094 -1.117188 -25.308594 -0.359375 -20.949219 C 1.40625 -8.503906 13.699219 -2.382812 25.453125 -4.429688 C 37.90625 -6.597656 47.484375 -18.371094 45.398438 -30.355469 C 43.988281 -38.449219 37.535156 -43.742188 31.867188 -48.210938 L 30.753906 -49.058594 C 27.242188 -51.734375 24.296875 -54.832031 23.796875 -57.710938 C 23.199219 -61.136719 26.910156 -63.304688 28.714844 -63.539062 C 31.15625 -63.804688 33.167969 -62.390625 34.949219 -59.972656 C 36.382812 -57.738281 38.59375 -57 40.695312 -57.363281 C 43.5 -57.851562 45.933594 -60.441406 45.3125 -64.023438 C 45.175781 -64.800781 44.976562 -65.488281 44.59375 -66.304688 C 41.746094 -72.0625 34.785156 -75.664062 26.847656 -74.28125 Z M 26.847656 -74.28125" transform="translate(178.246 178.14)"/></g></g></g><g fill="#D9D9D9"><g><g><path d="M 34.425781 -73.113281 L 14.34375 -69.617188 C 10.546875 -68.875 8.894531 -65.460938 9.394531 -62.582031 C 9.84375 -60.011719 11.976562 -57.898438 15.945312 -58.589844 L 24.117188 -60.011719 L 18.105469 -21.757812 C 17.0625 -15.320312 14.285156 -12.832031 10.628906 -12.195312 C 9.148438 -11.9375 7.773438 -13.382812 7.652344 -14.082031 C 7.675781 -14.40625 7.609375 -14.796875 7.554688 -15.109375 C 7.027344 -18.144531 3.820312 -19.511719 0.941406 -19.007812 C -1.9375 -18.507812 -4.570312 -16.125 -3.785156 -11.609375 C -2.539062 -4.449219 5.144531 0.0664062 13.707031 -1.421875 C 20.242188 -2.5625 28.324219 -7.738281 30.375 -20.363281 L 38.554688 -71.507812 C 38.753906 -72.664062 37.851562 -73.710938 36.605469 -73.492188 Z M 34.425781 -73.113281" transform="translate(231.168 168.928)"/></g></g></g><g fill="#FD6155" fill-opacity=".302"><g><g><path d="M 36.390625 -54.253906 C 35.308594 -61.425781 28.117188 -66.667969 19.117188 -65.308594 C 12.15625 -64.257812 4.140625 -59.234375 1.992188 -47.765625 L -3.011719 -20.902344 C -3.496094 -18.386719 -3.4375 -16.09375 -3.117188 -13.984375 C -1.886719 -5.828125 4.511719 -1.542969 12.585938 -1.902344 C 2.855469 2.230469 -4.195312 6.027344 -2.867188 14.816406 C -1.953125 20.863281 3.761719 25.390625 12.058594 24.140625 C 19.019531 23.089844 24.925781 18.382812 26.648438 9.78125 C 27.1875 6.679688 27.914062 3.40625 28.53125 0.363281 C 38.109375 -4.316406 47.617188 -11.363281 50.167969 -26.851562 C 50.28125 -27.515625 50.269531 -28.089844 50.195312 -28.582031 C 49.84375 -30.902344 47.734375 -32.019531 45.695312 -31.710938 C 43.796875 -31.425781 41.9375 -29.921875 41.367188 -27.03125 C 39.929688 -19.40625 35.785156 -14.464844 30.65625 -10.816406 L 35.488281 -32.617188 C 35.847656 -34.539062 36.023438 -36.21875 35.820312 -37.554688 C 35.523438 -39.523438 34.398438 -40.792969 31.699219 -41.03125 C 30.964844 -41.136719 30.253906 -41.101562 29.691406 -41.015625 C 26.105469 -40.476562 25.863281 -36.84375 24.597656 -31.402344 C 23.980469 -28.359375 23.269531 -24.011719 22.710938 -21.050781 C 21.625 -15.851562 18.390625 -12.988281 13.890625 -12.308594 C 10.585938 -11.8125 8.320312 -13.480469 7.851562 -16.574219 C 7.683594 -17.699219 7.761719 -19.078125 8.042969 -20.558594 L 12.949219 -45.679688 C 14 -51.089844 17.839844 -53.753906 20.582031 -54.167969 C 23.957031 -54.679688 24.941406 -52.453125 25.152344 -51.046875 C 25.675781 -47.601562 28.691406 -46.1875 31.714844 -46.644531 C 34.597656 -47.078125 37.125 -49.402344 36.390625 -54.253906 Z M 16.15625 5.542969 L 15.121094 10.589844 C 14.527344 13.339844 12.550781 15.003906 10.511719 15.3125 C 8.894531 15.554688 7.972656 14.6875 7.78125 13.421875 C 7.21875 9.695312 11.824219 7.347656 16.15625 5.542969 Z M 16.15625 5.542969" transform="translate(134.195 261.318)"/></g></g></g><g fill="#FD6155" fill-opacity=".302"><g><g><path d="M 37.207031 -26.476562 C 35.316406 -17.558594 31.992188 -13.390625 28.757812 -12.902344 C 27.492188 -12.710938 26.542969 -13.285156 26.394531 -14.269531 C 26.351562 -14.550781 26.359375 -14.984375 26.445312 -15.355469 L 31.265625 -40.105469 C 31.441406 -40.851562 31.414062 -41.492188 31.320312 -42.125 C 30.894531 -44.9375 28.148438 -46.464844 25.617188 -46.082031 C 23.578125 -45.773438 21.648438 -44.261719 21.039062 -41.148438 L 16.566406 -18.394531 C 15.183594 -14.230469 12.65625 -10.46875 9.84375 -10.042969 C 8.789062 -9.886719 8.121094 -10.503906 7.960938 -11.558594 C 7.878906 -12.121094 7.878906 -13.054688 7.984375 -13.792969 L 12.335938 -36.886719 C 12.5 -37.703125 12.535156 -38.425781 12.429688 -39.128906 C 11.992188 -42.011719 9.164062 -43.597656 6.5625 -43.203125 C 4.59375 -42.90625 2.664062 -41.394531 2.105469 -38.433594 L -2.5 -13.214844 C -2.730469 -11.886719 -2.75 -10.585938 -2.570312 -9.390625 C -1.710938 -3.695312 3.515625 -0.53125 9.421875 -1.421875 C 13.640625 -2.058594 16.496094 -4.578125 18.671875 -7.78125 C 21.167969 -5.066406 25.242188 -3.8125 29.460938 -4.449219 C 36.140625 -5.457031 43.175781 -10.765625 45.960938 -26.144531 C 46.035156 -26.585938 46.042969 -27.019531 45.980469 -27.441406 C 45.640625 -29.691406 43.328125 -30.707031 41.148438 -30.378906 C 39.320312 -30.101562 37.570312 -28.832031 37.207031 -26.476562 Z M 37.207031 -26.476562" transform="translate(176.235 254.968)"/></g></g></g><g fill="#FD6155" fill-opacity=".302"><g><g><path d="M 11.703125 -50.597656 C 14.867188 -51.074219 17.074219 -54.070312 16.585938 -57.304688 C 16.109375 -60.46875 13.125 -62.605469 9.960938 -62.128906 C 6.796875 -61.648438 4.578125 -58.726562 5.054688 -55.5625 C 5.542969 -52.328125 8.539062 -50.121094 11.703125 -50.597656 Z M 7.625 -13.304688 L 12.027344 -36.550781 C 12.167969 -37.507812 12.371094 -38.546875 12.265625 -39.25 C 11.796875 -42.339844 9.234375 -43.609375 6.84375 -43.246094 C 4.664062 -42.917969 2.578125 -41.019531 1.953125 -37.546875 C 0.699219 -30.597656 -0.988281 -21.785156 -2.25 -14.90625 C -2.460938 -13.4375 -2.738281 -11.453125 -2.554688 -10.257812 C -1.558594 -3.648438 4.5 -0.679688 10.96875 -1.65625 C 17.859375 -2.699219 24.816406 -8.0625 27.539062 -23.359375 C 27.617188 -23.804688 27.621094 -24.234375 27.558594 -24.65625 C 27.230469 -26.835938 24.917969 -27.855469 22.808594 -27.535156 C 20.910156 -27.25 19.160156 -25.980469 18.644531 -23.671875 C 16.722656 -14.03125 13.429688 -10.585938 10.617188 -10.160156 C 9 -9.917969 7.789062 -10.8125 7.585938 -12.148438 C 7.53125 -12.5 7.550781 -12.863281 7.625 -13.304688 Z M 7.625 -13.304688" transform="translate(214.127 249.245)"/></g></g></g><g fill="#FD6155" fill-opacity=".302"><g><g><path d="M 22.105469 -23.617188 C 20.460938 -15.460938 16.59375 -11.0625 12.515625 -10.449219 C 9.984375 -10.066406 8.207031 -11.378906 7.917969 -13.277344 C 7.84375 -13.769531 7.898438 -14.355469 7.964844 -14.867188 L 11.894531 -35.523438 L 16.464844 -36.214844 C 20.050781 -36.757812 21.566406 -39.574219 21.214844 -41.894531 C 20.9375 -43.722656 19.5 -45.160156 16.828125 -44.753906 L 13.664062 -44.277344 L 16.304688 -58.699219 C 16.371094 -59.210938 16.375 -59.644531 16.3125 -60.066406 C 15.917969 -62.667969 13.773438 -64.5 10.679688 -64.035156 C 8.359375 -63.683594 6.636719 -61.769531 6.164062 -59.179688 L 2.90625 -42.652344 L -0.046875 -42.207031 C -3.84375 -41.632812 -5.097656 -39 -4.757812 -36.75 C -4.460938 -34.78125 -3.011719 -33.273438 -1.113281 -33.558594 L 1.207031 -33.910156 L -2.140625 -16.074219 L -2.152344 -16.144531 C -2.457031 -14.371094 -2.507812 -12.78125 -2.28125 -11.304688 C -1.199219 -4.132812 5.835938 -0.882812 13.078125 -1.976562 C 22.078125 -3.335938 28.589844 -11.152344 30.859375 -23.285156 C 30.925781 -23.800781 30.988281 -24.3125 30.925781 -24.734375 C 30.609375 -26.84375 28.367188 -27.871094 26.1875 -27.542969 C 24.429688 -27.277344 22.609375 -25.996094 22.105469 -23.617188 Z M 22.105469 -23.617188" transform="translate(233.53 246.314)"/></g></g></g><g fill="#FD6155" fill-opacity=".302"><g><g><path d="M 40.496094 -30.421875 C 38.527344 -30.125 36.527344 -28.601562 36.085938 -25.800781 C 34.652344 -16.738281 30.65625 -13.1875 27.492188 -12.710938 C 26.296875 -12.53125 25.5 -13.054688 25.328125 -14.179688 C 25.246094 -14.742188 25.277344 -15.46875 25.371094 -16.273438 L 29.804688 -40.242188 C 29.960938 -41.128906 29.984375 -41.925781 29.878906 -42.628906 C 29.410156 -45.722656 26.636719 -46.957031 24.035156 -46.5625 C 22.066406 -46.265625 20.164062 -45.042969 19.304688 -43.117188 C 17.691406 -43.808594 14.789062 -44.449219 11.203125 -43.90625 C 6.5625 -43.203125 1.882812 -39.910156 0.800781 -34.207031 L -2.949219 -14.296875 C -3.179688 -12.96875 -3.269531 -11.660156 -3.082031 -10.394531 C -2.199219 -4.558594 3.234375 -0.488281 9.421875 -1.421875 C 12.726562 -1.921875 15.878906 -3.910156 18.128906 -6.621094 C 20.867188 -3.726562 25.945312 -3.917969 28.054688 -4.238281 C 33.890625 -5.117188 41.246094 -9.25 44.027344 -21.320312 C 44.597656 -24.210938 45.105469 -26.085938 44.914062 -27.351562 C 44.554688 -29.742188 42.535156 -30.730469 40.496094 -30.421875 Z M 17.1875 -27.621094 L 15.394531 -16.636719 C 14.609375 -11.84375 12.09375 -10.382812 10.617188 -10.160156 C 9.070312 -9.929688 8.148438 -10.796875 7.90625 -12.414062 C 7.765625 -13.328125 7.851562 -14.203125 7.964844 -14.867188 L 10.332031 -29.679688 C 11.019531 -34.167969 12.902344 -35.03125 14.027344 -35.199219 C 15.363281 -35.402344 17.042969 -34.289062 17.402344 -31.898438 C 17.5625 -30.84375 17.484375 -29.464844 17.1875 -27.621094 Z M 17.1875 -27.621094" transform="translate(256.518 242.842)"/></g></g></g><g fill="#FD6155" fill-opacity=".302"><g><g><path d="M 32.566406 -25.773438 C 30.9375 -18.480469 28.125 -12.804688 25.171875 -12.359375 C 24.1875 -12.210938 23.558594 -13.050781 23.410156 -14.035156 C 23.347656 -14.457031 23.332031 -15.03125 23.457031 -15.625 L 25.863281 -27.78125 C 26.074219 -29.253906 26.164062 -30.558594 25.984375 -31.753906 C 24.972656 -38.433594 16.113281 -39.972656 11.992188 -40.574219 C 12.121094 -41.167969 12.09375 -41.8125 12.007812 -42.375 C 11.519531 -45.609375 8.222656 -47.914062 5.058594 -47.4375 C 0.910156 -46.808594 -0.996094 -42.78125 -0.390625 -38.773438 C -0.125 -37.015625 0.78125 -35.285156 2.121094 -34.046875 L -0.921875 -19.421875 C -0.976562 -18.839844 -0.960938 -18.265625 -0.898438 -17.84375 C -0.546875 -15.523438 1.460938 -14.605469 3.429688 -14.902344 C 5.398438 -15.199219 7.269531 -16.632812 7.773438 -19.007812 L 10.117188 -30.148438 C 12.179688 -29.8125 14.855469 -29.714844 15.21875 -27.324219 C 15.269531 -26.972656 15.265625 -26.539062 15.199219 -26.027344 L 13.398438 -16.980469 C 13.082031 -15.28125 13.023438 -13.761719 13.234375 -12.355469 C 14.160156 -6.238281 19.617188 -2.964844 25.453125 -3.84375 C 33.117188 -5.003906 39.046875 -12.875 41.398438 -25.382812 C 41.476562 -25.824219 41.496094 -26.1875 41.441406 -26.539062 C 41.121094 -28.648438 38.589844 -29.703125 36.339844 -29.363281 C 34.511719 -29.089844 32.882812 -27.980469 32.566406 -25.773438 Z M 32.566406 -25.773438" transform="translate(293.425 237.267)"/></g></g></g><g fill="#FD6155" fill-opacity=".302"><g><g><path d="M 34.328125 -25.535156 C 33.269531 -21.132812 31.242188 -17.878906 28.296875 -15.492188 C 28.296875 -16.429688 28.3125 -17.292969 28.171875 -18.207031 C 27.558594 -22.285156 24.792969 -25.824219 22.324219 -28.828125 C 20.558594 -31.007812 18.789062 -33.1875 18.179688 -35.324219 C 20.023438 -36.464844 21.230469 -38.949219 20.910156 -41.058594 C 20.453125 -44.082031 17.707031 -46.542969 14.191406 -46.011719 C 11.519531 -45.609375 9.050781 -43.867188 8.128906 -40.925781 C 6.195312 -35.167969 4.058594 -29.308594 2.042969 -23.609375 C -2.488281 -21.703125 -4 -16.007812 -3.320312 -11.507812 C -2.28125 -4.617188 5.417969 -0.316406 17.863281 -2.195312 C 30.097656 -4.042969 40.363281 -10.339844 43.140625 -25.285156 C 43.238281 -25.589844 43.1875 -25.941406 43.144531 -26.222656 C 42.835938 -28.261719 40.292969 -29.386719 38.042969 -29.046875 C 36.355469 -28.792969 34.792969 -27.691406 34.328125 -25.535156 Z M 11.753906 -24.070312 L 12.183594 -25.5 C 14.675781 -23.289062 16.875 -20.167969 17.375 -16.863281 C 17.871094 -13.558594 16.527344 -10.550781 12.824219 -9.847656 C 10.433594 -9.488281 8.164062 -10.222656 7.113281 -11.933594 C 7.699219 -11.878906 8.261719 -11.964844 8.753906 -12.039062 C 12.832031 -12.652344 14.703125 -16.460938 14.179688 -19.90625 C 13.9375 -21.523438 13.128906 -23.054688 11.753906 -24.070312 Z M 11.753906 -24.070312" transform="translate(326.677 232.245)"/></g></g></g><g fill="#FD6155" fill-opacity=".502"><g><g><path d="M 36.390625 -54.253906 C 35.308594 -61.425781 28.117188 -66.667969 19.117188 -65.308594 C 12.15625 -64.257812 4.140625 -59.234375 1.992188 -47.765625 L -3.011719 -20.902344 C -3.496094 -18.386719 -3.4375 -16.09375 -3.117188 -13.984375 C -1.886719 -5.828125 4.511719 -1.542969 12.585938 -1.902344 C 2.855469 2.230469 -4.195312 6.027344 -2.867188 14.816406 C -1.953125 20.863281 3.761719 25.390625 12.058594 24.140625 C 19.019531 23.089844 24.925781 18.382812 26.648438 9.78125 C 27.1875 6.679688 27.914062 3.40625 28.53125 0.363281 C 38.109375 -4.316406 47.617188 -11.363281 50.167969 -26.851562 C 50.28125 -27.515625 50.269531 -28.089844 50.195312 -28.582031 C 49.84375 -30.902344 47.734375 -32.019531 45.695312 -31.710938 C 43.796875 -31.425781 41.9375 -29.921875 41.367188 -27.03125 C 39.929688 -19.40625 35.785156 -14.464844 30.65625 -10.816406 L 35.488281 -32.617188 C 35.847656 -34.539062 36.023438 -36.21875 35.820312 -37.554688 C 35.523438 -39.523438 34.398438 -40.792969 31.699219 -41.03125 C 30.964844 -41.136719 30.253906 -41.101562 29.691406 -41.015625 C 26.105469 -40.476562 25.863281 -36.84375 24.597656 -31.402344 C 23.980469 -28.359375 23.269531 -24.011719 22.710938 -21.050781 C 21.625 -15.851562 18.390625 -12.988281 13.890625 -12.308594 C 10.585938 -11.8125 8.320312 -13.480469 7.851562 -16.574219 C 7.683594 -17.699219 7.761719 -19.078125 8.042969 -20.558594 L 12.949219 -45.679688 C 14 -51.089844 17.839844 -53.753906 20.582031 -54.167969 C 23.957031 -54.679688 24.941406 -52.453125 25.152344 -51.046875 C 25.675781 -47.601562 28.691406 -46.1875 31.714844 -46.644531 C 34.597656 -47.078125 37.125 -49.402344 36.390625 -54.253906 Z M 16.15625 5.542969 L 15.121094 10.589844 C 14.527344 13.339844 12.550781 15.003906 10.511719 15.3125 C 8.894531 15.554688 7.972656 14.6875 7.78125 13.421875 C 7.21875 9.695312 11.824219 7.347656 16.15625 5.542969 Z M 16.15625 5.542969" transform="translate(130.957 257.538)"/></g></g></g><g fill="#FD6155" fill-opacity=".502"><g><g><path d="M 37.207031 -26.476562 C 35.316406 -17.558594 31.992188 -13.390625 28.757812 -12.902344 C 27.492188 -12.710938 26.542969 -13.285156 26.394531 -14.269531 C 26.351562 -14.550781 26.359375 -14.984375 26.445312 -15.355469 L 31.265625 -40.105469 C 31.441406 -40.851562 31.414062 -41.492188 31.320312 -42.125 C 30.894531 -44.9375 28.148438 -46.464844 25.617188 -46.082031 C 23.578125 -45.773438 21.648438 -44.261719 21.039062 -41.148438 L 16.566406 -18.394531 C 15.183594 -14.230469 12.65625 -10.46875 9.84375 -10.042969 C 8.789062 -9.886719 8.121094 -10.503906 7.960938 -11.558594 C 7.878906 -12.121094 7.878906 -13.054688 7.984375 -13.792969 L 12.335938 -36.886719 C 12.5 -37.703125 12.535156 -38.425781 12.429688 -39.128906 C 11.992188 -42.011719 9.164062 -43.597656 6.5625 -43.203125 C 4.59375 -42.90625 2.664062 -41.394531 2.105469 -38.433594 L -2.5 -13.214844 C -2.730469 -11.886719 -2.75 -10.585938 -2.570312 -9.390625 C -1.710938 -3.695312 3.515625 -0.53125 9.421875 -1.421875 C 13.640625 -2.058594 16.496094 -4.578125 18.671875 -7.78125 C 21.167969 -5.066406 25.242188 -3.8125 29.460938 -4.449219 C 36.140625 -5.457031 43.175781 -10.765625 45.960938 -26.144531 C 46.035156 -26.585938 46.042969 -27.019531 45.980469 -27.441406 C 45.640625 -29.691406 43.328125 -30.707031 41.148438 -30.378906 C 39.320312 -30.101562 37.570312 -28.832031 37.207031 -26.476562 Z M 37.207031 -26.476562" transform="translate(172.996 251.188)"/></g></g></g><g fill="#FD6155" fill-opacity=".502"><g><g><path d="M 11.703125 -50.597656 C 14.867188 -51.074219 17.074219 -54.070312 16.585938 -57.304688 C 16.109375 -60.46875 13.125 -62.605469 9.960938 -62.128906 C 6.796875 -61.648438 4.578125 -58.726562 5.054688 -55.5625 C 5.542969 -52.328125 8.539062 -50.121094 11.703125 -50.597656 Z M 7.625 -13.304688 L 12.027344 -36.550781 C 12.167969 -37.507812 12.371094 -38.546875 12.265625 -39.25 C 11.796875 -42.339844 9.234375 -43.609375 6.84375 -43.246094 C 4.664062 -42.917969 2.578125 -41.019531 1.953125 -37.546875 C 0.699219 -30.597656 -0.988281 -21.785156 -2.25 -14.90625 C -2.460938 -13.4375 -2.738281 -11.453125 -2.554688 -10.257812 C -1.558594 -3.648438 4.5 -0.679688 10.96875 -1.65625 C 17.859375 -2.699219 24.816406 -8.0625 27.539062 -23.359375 C 27.617188 -23.804688 27.621094 -24.234375 27.558594 -24.65625 C 27.230469 -26.835938 24.917969 -27.855469 22.808594 -27.535156 C 20.910156 -27.25 19.160156 -25.980469 18.644531 -23.671875 C 16.722656 -14.03125 13.429688 -10.585938 10.617188 -10.160156 C 9 -9.917969 7.789062 -10.8125 7.585938 -12.148438 C 7.53125 -12.5 7.550781 -12.863281 7.625 -13.304688 Z M 7.625 -13.304688" transform="translate(210.888 245.465)"/></g></g></g><g fill="#FD6155" fill-opacity=".502"><g><g><path d="M 22.105469 -23.617188 C 20.460938 -15.460938 16.59375 -11.0625 12.515625 -10.449219 C 9.984375 -10.066406 8.207031 -11.378906 7.917969 -13.277344 C 7.84375 -13.769531 7.898438 -14.355469 7.964844 -14.867188 L 11.894531 -35.523438 L 16.464844 -36.214844 C 20.050781 -36.757812 21.566406 -39.574219 21.214844 -41.894531 C 20.9375 -43.722656 19.5 -45.160156 16.828125 -44.753906 L 13.664062 -44.277344 L 16.304688 -58.699219 C 16.371094 -59.210938 16.375 -59.644531 16.3125 -60.066406 C 15.917969 -62.667969 13.773438 -64.5 10.679688 -64.035156 C 8.359375 -63.683594 6.636719 -61.769531 6.164062 -59.179688 L 2.90625 -42.652344 L -0.046875 -42.207031 C -3.84375 -41.632812 -5.097656 -39 -4.757812 -36.75 C -4.460938 -34.78125 -3.011719 -33.273438 -1.113281 -33.558594 L 1.207031 -33.910156 L -2.140625 -16.074219 L -2.152344 -16.144531 C -2.457031 -14.371094 -2.507812 -12.78125 -2.28125 -11.304688 C -1.199219 -4.132812 5.835938 -0.882812 13.078125 -1.976562 C 22.078125 -3.335938 28.589844 -11.152344 30.859375 -23.285156 C 30.925781 -23.800781 30.988281 -24.3125 30.925781 -24.734375 C 30.609375 -26.84375 28.367188 -27.871094 26.1875 -27.542969 C 24.429688 -27.277344 22.609375 -25.996094 22.105469 -23.617188 Z M 22.105469 -23.617188" transform="translate(230.29 242.534)"/></g></g></g><g fill="#FD6155" fill-opacity=".502"><g><g><path d="M 40.496094 -30.421875 C 38.527344 -30.125 36.527344 -28.601562 36.085938 -25.800781 C 34.652344 -16.738281 30.65625 -13.1875 27.492188 -12.710938 C 26.296875 -12.53125 25.5 -13.054688 25.328125 -14.179688 C 25.246094 -14.742188 25.277344 -15.46875 25.371094 -16.273438 L 29.804688 -40.242188 C 29.960938 -41.128906 29.984375 -41.925781 29.878906 -42.628906 C 29.410156 -45.722656 26.636719 -46.957031 24.035156 -46.5625 C 22.066406 -46.265625 20.164062 -45.042969 19.304688 -43.117188 C 17.691406 -43.808594 14.789062 -44.449219 11.203125 -43.90625 C 6.5625 -43.203125 1.882812 -39.910156 0.800781 -34.207031 L -2.949219 -14.296875 C -3.179688 -12.96875 -3.269531 -11.660156 -3.082031 -10.394531 C -2.199219 -4.558594 3.234375 -0.488281 9.421875 -1.421875 C 12.726562 -1.921875 15.878906 -3.910156 18.128906 -6.621094 C 20.867188 -3.726562 25.945312 -3.917969 28.054688 -4.238281 C 33.890625 -5.117188 41.246094 -9.25 44.027344 -21.320312 C 44.597656 -24.210938 45.105469 -26.085938 44.914062 -27.351562 C 44.554688 -29.742188 42.535156 -30.730469 40.496094 -30.421875 Z M 17.1875 -27.621094 L 15.394531 -16.636719 C 14.609375 -11.84375 12.09375 -10.382812 10.617188 -10.160156 C 9.070312 -9.929688 8.148438 -10.796875 7.90625 -12.414062 C 7.765625 -13.328125 7.851562 -14.203125 7.964844 -14.867188 L 10.332031 -29.679688 C 11.019531 -34.167969 12.902344 -35.03125 14.027344 -35.199219 C 15.363281 -35.402344 17.042969 -34.289062 17.402344 -31.898438 C 17.5625 -30.84375 17.484375 -29.464844 17.1875 -27.621094 Z M 17.1875 -27.621094" transform="translate(253.279 239.062)"/></g></g></g><g fill="#FD6155" fill-opacity=".502"><g><g><path d="M 32.566406 -25.773438 C 30.9375 -18.480469 28.125 -12.804688 25.171875 -12.359375 C 24.1875 -12.210938 23.558594 -13.050781 23.410156 -14.035156 C 23.347656 -14.457031 23.332031 -15.03125 23.457031 -15.625 L 25.863281 -27.78125 C 26.074219 -29.253906 26.164062 -30.558594 25.984375 -31.753906 C 24.972656 -38.433594 16.113281 -39.972656 11.992188 -40.574219 C 12.121094 -41.167969 12.09375 -41.8125 12.007812 -42.375 C 11.519531 -45.609375 8.222656 -47.914062 5.058594 -47.4375 C 0.910156 -46.808594 -0.996094 -42.78125 -0.390625 -38.773438 C -0.125 -37.015625 0.78125 -35.285156 2.121094 -34.046875 L -0.921875 -19.421875 C -0.976562 -18.839844 -0.960938 -18.265625 -0.898438 -17.84375 C -0.546875 -15.523438 1.460938 -14.605469 3.429688 -14.902344 C 5.398438 -15.199219 7.269531 -16.632812 7.773438 -19.007812 L 10.117188 -30.148438 C 12.179688 -29.8125 14.855469 -29.714844 15.21875 -27.324219 C 15.269531 -26.972656 15.265625 -26.539062 15.199219 -26.027344 L 13.398438 -16.980469 C 13.082031 -15.28125 13.023438 -13.761719 13.234375 -12.355469 C 14.160156 -6.238281 19.617188 -2.964844 25.453125 -3.84375 C 33.117188 -5.003906 39.046875 -12.875 41.398438 -25.382812 C 41.476562 -25.824219 41.496094 -26.1875 41.441406 -26.539062 C 41.121094 -28.648438 38.589844 -29.703125 36.339844 -29.363281 C 34.511719 -29.089844 32.882812 -27.980469 32.566406 -25.773438 Z M 32.566406 -25.773438" transform="translate(290.187 233.487)"/></g></g></g><g fill="#FD6155" fill-opacity=".502"><g><g><path d="M 34.328125 -25.535156 C 33.269531 -21.132812 31.242188 -17.878906 28.296875 -15.492188 C 28.296875 -16.429688 28.3125 -17.292969 28.171875 -18.207031 C 27.558594 -22.285156 24.792969 -25.824219 22.324219 -28.828125 C 20.558594 -31.007812 18.789062 -33.1875 18.179688 -35.324219 C 20.023438 -36.464844 21.230469 -38.949219 20.910156 -41.058594 C 20.453125 -44.082031 17.707031 -46.542969 14.191406 -46.011719 C 11.519531 -45.609375 9.050781 -43.867188 8.128906 -40.925781 C 6.195312 -35.167969 4.058594 -29.308594 2.042969 -23.609375 C -2.488281 -21.703125 -4 -16.007812 -3.320312 -11.507812 C -2.28125 -4.617188 5.417969 -0.316406 17.863281 -2.195312 C 30.097656 -4.042969 40.363281 -10.339844 43.140625 -25.285156 C 43.238281 -25.589844 43.1875 -25.941406 43.144531 -26.222656 C 42.835938 -28.261719 40.292969 -29.386719 38.042969 -29.046875 C 36.355469 -28.792969 34.792969 -27.691406 34.328125 -25.535156 Z M 11.753906 -24.070312 L 12.183594 -25.5 C 14.675781 -23.289062 16.875 -20.167969 17.375 -16.863281 C 17.871094 -13.558594 16.527344 -10.550781 12.824219 -9.847656 C 10.433594 -9.488281 8.164062 -10.222656 7.113281 -11.933594 C 7.699219 -11.878906 8.261719 -11.964844 8.753906 -12.039062 C 12.832031 -12.652344 14.703125 -16.460938 14.179688 -19.90625 C 13.9375 -21.523438 13.128906 -23.054688 11.753906 -24.070312 Z M 11.753906 -24.070312" transform="translate(323.439 228.465)"/></g></g></g><g fill="#D9D9D9"><g><g><path d="M 36.390625 -54.253906 C 35.308594 -61.425781 28.117188 -66.667969 19.117188 -65.308594 C 12.15625 -64.257812 4.140625 -59.234375 1.992188 -47.765625 L -3.011719 -20.902344 C -3.496094 -18.386719 -3.4375 -16.09375 -3.117188 -13.984375 C -1.886719 -5.828125 4.511719 -1.542969 12.585938 -1.902344 C 2.855469 2.230469 -4.195312 6.027344 -2.867188 14.816406 C -1.953125 20.863281 3.761719 25.390625 12.058594 24.140625 C 19.019531 23.089844 24.925781 18.382812 26.648438 9.78125 C 27.1875 6.679688 27.914062 3.40625 28.53125 0.363281 C 38.109375 -4.316406 47.617188 -11.363281 50.167969 -26.851562 C 50.28125 -27.515625 50.269531 -28.089844 50.195312 -28.582031 C 49.84375 -30.902344 47.734375 -32.019531 45.695312 -31.710938 C 43.796875 -31.425781 41.9375 -29.921875 41.367188 -27.03125 C 39.929688 -19.40625 35.785156 -14.464844 30.65625 -10.816406 L 35.488281 -32.617188 C 35.847656 -34.539062 36.023438 -36.21875 35.820312 -37.554688 C 35.523438 -39.523438 34.398438 -40.792969 31.699219 -41.03125 C 30.964844 -41.136719 30.253906 -41.101562 29.691406 -41.015625 C 26.105469 -40.476562 25.863281 -36.84375 24.597656 -31.402344 C 23.980469 -28.359375 23.269531 -24.011719 22.710938 -21.050781 C 21.625 -15.851562 18.390625 -12.988281 13.890625 -12.308594 C 10.585938 -11.8125 8.320312 -13.480469 7.851562 -16.574219 C 7.683594 -17.699219 7.761719 -19.078125 8.042969 -20.558594 L 12.949219 -45.679688 C 14 -51.089844 17.839844 -53.753906 20.582031 -54.167969 C 23.957031 -54.679688 24.941406 -52.453125 25.152344 -51.046875 C 25.675781 -47.601562 28.691406 -46.1875 31.714844 -46.644531 C 34.597656 -47.078125 37.125 -49.402344 36.390625 -54.253906 Z M 16.15625 5.542969 L 15.121094 10.589844 C 14.527344 13.339844 12.550781 15.003906 10.511719 15.3125 C 8.894531 15.554688 7.972656 14.6875 7.78125 13.421875 C 7.21875 9.695312 11.824219 7.347656 16.15625 5.542969 Z M 16.15625 5.542969" transform="translate(127.718 253.758)"/></g></g></g><g fill="#D9D9D9"><g><g><path d="M 37.207031 -26.476562 C 35.316406 -17.558594 31.992188 -13.390625 28.757812 -12.902344 C 27.492188 -12.710938 26.542969 -13.285156 26.394531 -14.269531 C 26.351562 -14.550781 26.359375 -14.984375 26.445312 -15.355469 L 31.265625 -40.105469 C 31.441406 -40.851562 31.414062 -41.492188 31.320312 -42.125 C 30.894531 -44.9375 28.148438 -46.464844 25.617188 -46.082031 C 23.578125 -45.773438 21.648438 -44.261719 21.039062 -41.148438 L 16.566406 -18.394531 C 15.183594 -14.230469 12.65625 -10.46875 9.84375 -10.042969 C 8.789062 -9.886719 8.121094 -10.503906 7.960938 -11.558594 C 7.878906 -12.121094 7.878906 -13.054688 7.984375 -13.792969 L 12.335938 -36.886719 C 12.5 -37.703125 12.535156 -38.425781 12.429688 -39.128906 C 11.992188 -42.011719 9.164062 -43.597656 6.5625 -43.203125 C 4.59375 -42.90625 2.664062 -41.394531 2.105469 -38.433594 L -2.5 -13.214844 C -2.730469 -11.886719 -2.75 -10.585938 -2.570312 -9.390625 C -1.710938 -3.695312 3.515625 -0.53125 9.421875 -1.421875 C 13.640625 -2.058594 16.496094 -4.578125 18.671875 -7.78125 C 21.167969 -5.066406 25.242188 -3.8125 29.460938 -4.449219 C 36.140625 -5.457031 43.175781 -10.765625 45.960938 -26.144531 C 46.035156 -26.585938 46.042969 -27.019531 45.980469 -27.441406 C 45.640625 -29.691406 43.328125 -30.707031 41.148438 -30.378906 C 39.320312 -30.101562 37.570312 -28.832031 37.207031 -26.476562 Z M 37.207031 -26.476562" transform="translate(169.757 247.408)"/></g></g></g><g fill="#D9D9D9"><g><g><path d="M 11.703125 -50.597656 C 14.867188 -51.074219 17.074219 -54.070312 16.585938 -57.304688 C 16.109375 -60.46875 13.125 -62.605469 9.960938 -62.128906 C 6.796875 -61.648438 4.578125 -58.726562 5.054688 -55.5625 C 5.542969 -52.328125 8.539062 -50.121094 11.703125 -50.597656 Z M 7.625 -13.304688 L 12.027344 -36.550781 C 12.167969 -37.507812 12.371094 -38.546875 12.265625 -39.25 C 11.796875 -42.339844 9.234375 -43.609375 6.84375 -43.246094 C 4.664062 -42.917969 2.578125 -41.019531 1.953125 -37.546875 C 0.699219 -30.597656 -0.988281 -21.785156 -2.25 -14.90625 C -2.460938 -13.4375 -2.738281 -11.453125 -2.554688 -10.257812 C -1.558594 -3.648438 4.5 -0.679688 10.96875 -1.65625 C 17.859375 -2.699219 24.816406 -8.0625 27.539062 -23.359375 C 27.617188 -23.804688 27.621094 -24.234375 27.558594 -24.65625 C 27.230469 -26.835938 24.917969 -27.855469 22.808594 -27.535156 C 20.910156 -27.25 19.160156 -25.980469 18.644531 -23.671875 C 16.722656 -14.03125 13.429688 -10.585938 10.617188 -10.160156 C 9 -9.917969 7.789062 -10.8125 7.585938 -12.148438 C 7.53125 -12.5 7.550781 -12.863281 7.625 -13.304688 Z M 7.625 -13.304688" transform="translate(207.65 241.685)"/></g></g></g><g fill="#D9D9D9"><g><g><path d="M 22.105469 -23.617188 C 20.460938 -15.460938 16.59375 -11.0625 12.515625 -10.449219 C 9.984375 -10.066406 8.207031 -11.378906 7.917969 -13.277344 C 7.84375 -13.769531 7.898438 -14.355469 7.964844 -14.867188 L 11.894531 -35.523438 L 16.464844 -36.214844 C 20.050781 -36.757812 21.566406 -39.574219 21.214844 -41.894531 C 20.9375 -43.722656 19.5 -45.160156 16.828125 -44.753906 L 13.664062 -44.277344 L 16.304688 -58.699219 C 16.371094 -59.210938 16.375 -59.644531 16.3125 -60.066406 C 15.917969 -62.667969 13.773438 -64.5 10.679688 -64.035156 C 8.359375 -63.683594 6.636719 -61.769531 6.164062 -59.179688 L 2.90625 -42.652344 L -0.046875 -42.207031 C -3.84375 -41.632812 -5.097656 -39 -4.757812 -36.75 C -4.460938 -34.78125 -3.011719 -33.273438 -1.113281 -33.558594 L 1.207031 -33.910156 L -2.140625 -16.074219 L -2.152344 -16.144531 C -2.457031 -14.371094 -2.507812 -12.78125 -2.28125 -11.304688 C -1.199219 -4.132812 5.835938 -0.882812 13.078125 -1.976562 C 22.078125 -3.335938 28.589844 -11.152344 30.859375 -23.285156 C 30.925781 -23.800781 30.988281 -24.3125 30.925781 -24.734375 C 30.609375 -26.84375 28.367188 -27.871094 26.1875 -27.542969 C 24.429688 -27.277344 22.609375 -25.996094 22.105469 -23.617188 Z M 22.105469 -23.617188" transform="translate(227.052 238.754)"/></g></g></g><g fill="#D9D9D9"><g><g><path d="M 40.496094 -30.421875 C 38.527344 -30.125 36.527344 -28.601562 36.085938 -25.800781 C 34.652344 -16.738281 30.65625 -13.1875 27.492188 -12.710938 C 26.296875 -12.53125 25.5 -13.054688 25.328125 -14.179688 C 25.246094 -14.742188 25.277344 -15.46875 25.371094 -16.273438 L 29.804688 -40.242188 C 29.960938 -41.128906 29.984375 -41.925781 29.878906 -42.628906 C 29.410156 -45.722656 26.636719 -46.957031 24.035156 -46.5625 C 22.066406 -46.265625 20.164062 -45.042969 19.304688 -43.117188 C 17.691406 -43.808594 14.789062 -44.449219 11.203125 -43.90625 C 6.5625 -43.203125 1.882812 -39.910156 0.800781 -34.207031 L -2.949219 -14.296875 C -3.179688 -12.96875 -3.269531 -11.660156 -3.082031 -10.394531 C -2.199219 -4.558594 3.234375 -0.488281 9.421875 -1.421875 C 12.726562 -1.921875 15.878906 -3.910156 18.128906 -6.621094 C 20.867188 -3.726562 25.945312 -3.917969 28.054688 -4.238281 C 33.890625 -5.117188 41.246094 -9.25 44.027344 -21.320312 C 44.597656 -24.210938 45.105469 -26.085938 44.914062 -27.351562 C 44.554688 -29.742188 42.535156 -30.730469 40.496094 -30.421875 Z M 17.1875 -27.621094 L 15.394531 -16.636719 C 14.609375 -11.84375 12.09375 -10.382812 10.617188 -10.160156 C 9.070312 -9.929688 8.148438 -10.796875 7.90625 -12.414062 C 7.765625 -13.328125 7.851562 -14.203125 7.964844 -14.867188 L 10.332031 -29.679688 C 11.019531 -34.167969 12.902344 -35.03125 14.027344 -35.199219 C 15.363281 -35.402344 17.042969 -34.289062 17.402344 -31.898438 C 17.5625 -30.84375 17.484375 -29.464844 17.1875 -27.621094 Z M 17.1875 -27.621094" transform="translate(250.04 235.282)"/></g></g></g><g fill="#D9D9D9"><g><g><path d="M 32.566406 -25.773438 C 30.9375 -18.480469 28.125 -12.804688 25.171875 -12.359375 C 24.1875 -12.210938 23.558594 -13.050781 23.410156 -14.035156 C 23.347656 -14.457031 23.332031 -15.03125 23.457031 -15.625 L 25.863281 -27.78125 C 26.074219 -29.253906 26.164062 -30.558594 25.984375 -31.753906 C 24.972656 -38.433594 16.113281 -39.972656 11.992188 -40.574219 C 12.121094 -41.167969 12.09375 -41.8125 12.007812 -42.375 C 11.519531 -45.609375 8.222656 -47.914062 5.058594 -47.4375 C 0.910156 -46.808594 -0.996094 -42.78125 -0.390625 -38.773438 C -0.125 -37.015625 0.78125 -35.285156 2.121094 -34.046875 L -0.921875 -19.421875 C -0.976562 -18.839844 -0.960938 -18.265625 -0.898438 -17.84375 C -0.546875 -15.523438 1.460938 -14.605469 3.429688 -14.902344 C 5.398438 -15.199219 7.269531 -16.632812 7.773438 -19.007812 L 10.117188 -30.148438 C 12.179688 -29.8125 14.855469 -29.714844 15.21875 -27.324219 C 15.269531 -26.972656 15.265625 -26.539062 15.199219 -26.027344 L 13.398438 -16.980469 C 13.082031 -15.28125 13.023438 -13.761719 13.234375 -12.355469 C 14.160156 -6.238281 19.617188 -2.964844 25.453125 -3.84375 C 33.117188 -5.003906 39.046875 -12.875 41.398438 -25.382812 C 41.476562 -25.824219 41.496094 -26.1875 41.441406 -26.539062 C 41.121094 -28.648438 38.589844 -29.703125 36.339844 -29.363281 C 34.511719 -29.089844 32.882812 -27.980469 32.566406 -25.773438 Z M 32.566406 -25.773438" transform="translate(286.948 229.707)"/></g></g></g><g fill="#D9D9D9"><g><g><path d="M 34.328125 -25.535156 C 33.269531 -21.132812 31.242188 -17.878906 28.296875 -15.492188 C 28.296875 -16.429688 28.3125 -17.292969 28.171875 -18.207031 C 27.558594 -22.285156 24.792969 -25.824219 22.324219 -28.828125 C 20.558594 -31.007812 18.789062 -33.1875 18.179688 -35.324219 C 20.023438 -36.464844 21.230469 -38.949219 20.910156 -41.058594 C 20.453125 -44.082031 17.707031 -46.542969 14.191406 -46.011719 C 11.519531 -45.609375 9.050781 -43.867188 8.128906 -40.925781 C 6.195312 -35.167969 4.058594 -29.308594 2.042969 -23.609375 C -2.488281 -21.703125 -4 -16.007812 -3.320312 -11.507812 C -2.28125 -4.617188 5.417969 -0.316406 17.863281 -2.195312 C 30.097656 -4.042969 40.363281 -10.339844 43.140625 -25.285156 C 43.238281 -25.589844 43.1875 -25.941406 43.144531 -26.222656 C 42.835938 -28.261719 40.292969 -29.386719 38.042969 -29.046875 C 36.355469 -28.792969 34.792969 -27.691406 34.328125 -25.535156 Z M 11.753906 -24.070312 L 12.183594 -25.5 C 14.675781 -23.289062 16.875 -20.167969 17.375 -16.863281 C 17.871094 -13.558594 16.527344 -10.550781 12.824219 -9.847656 C 10.433594 -9.488281 8.164062 -10.222656 7.113281 -11.933594 C 7.699219 -11.878906 8.261719 -11.964844 8.753906 -12.039062 C 12.832031 -12.652344 14.703125 -16.460938 14.179688 -19.90625 C 13.9375 -21.523438 13.128906 -23.054688 11.753906 -24.070312 Z M 11.753906 -24.070312" transform="translate(320.2 224.685)"/></g></g></g></svg>